<svg viewBox="0 0 1449 400" xmlns="http://www.w3.org/2000/svg"><g><g><g><g><g><line x1="51.41600036621094" y1="377.95999908447266" x2="46.41600036621094" y2="377.95999908447266" style="visibility: inherit;" fill="rgb(0, 0, 0)" stroke="rgb(204, 204, 204)" stroke-width="1px"></line><line x1="51.41600036621094" y1="346.4633324940999" x2="46.41600036621094" y2="346.4633324940999" style="visibility: inherit;" fill="rgb(0, 0, 0)" stroke="rgb(204, 204, 204)" stroke-width="1px"></line><line x1="51.41600036621094" y1="314.96666590372723" x2="46.41600036621094" y2="314.96666590372723" style="visibility: inherit;" fill="rgb(0, 0, 0)" stroke="rgb(204, 204, 204)" stroke-width="1px"></line><line x1="51.41600036621094" y1="283.4699993133545" x2="46.41600036621094" y2="283.4699993133545" style="visibility: inherit;" fill="rgb(0, 0, 0)" stroke="rgb(204, 204, 204)" stroke-width="1px"></line><line x1="51.41600036621094" y1="251.97333272298178" x2="46.41600036621094" y2="251.97333272298178" style="visibility: inherit;" fill="rgb(0, 0, 0)" stroke="rgb(204, 204, 204)" stroke-width="1px"></line><line x1="51.41600036621094" y1="220.47666613260907" x2="46.41600036621094" y2="220.47666613260907" style="visibility: inherit;" fill="rgb(0, 0, 0)" stroke="rgb(204, 204, 204)" stroke-width="1px"></line><line x1="51.41600036621094" y1="188.97999954223636" x2="46.41600036621094" y2="188.97999954223636" style="visibility: inherit;" fill="rgb(0, 0, 0)" stroke="rgb(204, 204, 204)" stroke-width="1px"></line><line x1="51.41600036621094" y1="157.48333295186364" x2="46.41600036621094" y2="157.48333295186364" style="visibility: inherit;" fill="rgb(0, 0, 0)" stroke="rgb(204, 204, 204)" stroke-width="1px"></line><line x1="51.41600036621094" y1="125.98666636149093" x2="46.41600036621094" y2="125.98666636149093" style="visibility: inherit;" fill="rgb(0, 0, 0)" stroke="rgb(204, 204, 204)" stroke-width="1px"></line><line x1="51.41600036621094" y1="94.48999977111822" x2="46.41600036621094" y2="94.48999977111822" style="visibility: inherit;" fill="rgb(0, 0, 0)" stroke="rgb(204, 204, 204)" stroke-width="1px"></line><line x1="51.41600036621094" y1="62.99333318074548" x2="46.41600036621094" y2="62.99333318074548" style="visibility: inherit;" fill="rgb(0, 0, 0)" stroke="rgb(204, 204, 204)" stroke-width="1px"></line><line x1="51.41600036621094" y1="31.49666659037274" x2="46.41600036621094" y2="31.49666659037274" style="visibility: inherit;" fill="rgb(0, 0, 0)" stroke="rgb(204, 204, 204)" stroke-width="1px"></line><line x1="51.41600036621094" y1="0" x2="46.41600036621094" y2="0" style="visibility: inherit;" fill="rgb(0, 0, 0)" stroke="rgb(204, 204, 204)" stroke-width="1px"></line></g><g transform="translate(41.41600036621094, 0)"><text style="text-anchor: end; visibility: hidden; font-family: &quot;Helvetica Neue&quot;, sans-serif; font-size: 12px; font-weight: 200;" x="0" y="377.95999908447266" dx="0em" dy="0.3em" fill="rgb(50, 49, 63)" stroke="none" stroke-width="1px">-0.1</text><text style="text-anchor: end; visibility: inherit; font-family: &quot;Helvetica Neue&quot;, sans-serif; font-size: 12px; font-weight: 200;" x="0" y="346.4633324940999" dx="0em" dy="0.3em" fill="rgb(50, 49, 63)" stroke="none" stroke-width="1px">0</text><text style="text-anchor: end; visibility: inherit; font-family: &quot;Helvetica Neue&quot;, sans-serif; font-size: 12px; font-weight: 200;" x="0" y="314.96666590372723" dx="0em" dy="0.3em" fill="rgb(50, 49, 63)" stroke="none" stroke-width="1px">0.1</text><text style="text-anchor: end; visibility: inherit; font-family: &quot;Helvetica Neue&quot;, sans-serif; font-size: 12px; font-weight: 200;" x="0" y="283.4699993133545" dx="0em" dy="0.3em" fill="rgb(50, 49, 63)" stroke="none" stroke-width="1px">0.2</text><text style="text-anchor: end; visibility: inherit; font-family: &quot;Helvetica Neue&quot;, sans-serif; font-size: 12px; font-weight: 200;" x="0" y="251.97333272298178" dx="0em" dy="0.3em" fill="rgb(50, 49, 63)" stroke="none" stroke-width="1px">0.3</text><text style="text-anchor: end; visibility: inherit; font-family: &quot;Helvetica Neue&quot;, sans-serif; font-size: 12px; font-weight: 200;" x="0" y="220.47666613260907" dx="0em" dy="0.3em" fill="rgb(50, 49, 63)" stroke="none" stroke-width="1px">0.4</text><text style="text-anchor: end; visibility: inherit; font-family: &quot;Helvetica Neue&quot;, sans-serif; font-size: 12px; font-weight: 200;" x="0" y="188.97999954223636" dx="0em" dy="0.3em" fill="rgb(50, 49, 63)" stroke="none" stroke-width="1px">0.5</text><text style="text-anchor: end; visibility: inherit; font-family: &quot;Helvetica Neue&quot;, sans-serif; font-size: 12px; font-weight: 200;" x="0" y="157.48333295186364" dx="0em" dy="0.3em" fill="rgb(50, 49, 63)" stroke="none" stroke-width="1px">0.6</text><text style="text-anchor: end; visibility: inherit; font-family: &quot;Helvetica Neue&quot;, sans-serif; font-size: 12px; font-weight: 200;" x="0" y="125.98666636149093" dx="0em" dy="0.3em" fill="rgb(50, 49, 63)" stroke="none" stroke-width="1px">0.7</text><text style="text-anchor: end; visibility: inherit; font-family: &quot;Helvetica Neue&quot;, sans-serif; font-size: 12px; font-weight: 200;" x="0" y="94.48999977111822" dx="0em" dy="0.3em" fill="rgb(50, 49, 63)" stroke="none" stroke-width="1px">0.8</text><text style="text-anchor: end; visibility: inherit; font-family: &quot;Helvetica Neue&quot;, sans-serif; font-size: 12px; font-weight: 200;" x="0" y="62.99333318074548" dx="0em" dy="0.3em" fill="rgb(50, 49, 63)" stroke="none" stroke-width="1px">0.9</text><text style="text-anchor: end; visibility: inherit; font-family: &quot;Helvetica Neue&quot;, sans-serif; font-size: 12px; font-weight: 200;" x="0" y="31.49666659037274" dx="0em" dy="0.3em" fill="rgb(50, 49, 63)" stroke="none" stroke-width="1px">1</text><text style="text-anchor: end; visibility: hidden; font-family: &quot;Helvetica Neue&quot;, sans-serif; font-size: 12px; font-weight: 200;" x="0" y="0" dx="0em" dy="0.3em" fill="rgb(50, 49, 63)" stroke="none" stroke-width="1px">1.1</text></g><line x1="51.41600036621094" y1="0" x2="51.41600036621094" y2="377.95999908447266" fill="rgb(0, 0, 0)" stroke="rgb(204, 204, 204)" stroke-width="1px"></line></g></g><g transform="translate(51, 0)" clip-path="url(#clip_0)"><clipPath id="clip_0"><rect width="1397" height="377"></rect></clipPath><g><g><g><line x1="0" y1="0" x2="0" y2="377.95999908447266" fill="rgb(0, 0, 0)" stroke="rgb(60, 60, 60)" stroke-width="1px" opacity="0.25"></line><line x1="139.7583999633789" y1="0" x2="139.7583999633789" y2="377.95999908447266" fill="rgb(0, 0, 0)" stroke="rgb(60, 60, 60)" stroke-width="1px" opacity="0.25"></line><line x1="279.5167999267578" y1="0" x2="279.5167999267578" y2="377.95999908447266" fill="rgb(0, 0, 0)" stroke="rgb(60, 60, 60)" stroke-width="1px" opacity="0.25"></line><line x1="419.2751998901367" y1="0" x2="419.2751998901367" y2="377.95999908447266" fill="rgb(0, 0, 0)" stroke="rgb(60, 60, 60)" stroke-width="1px" opacity="0.25"></line><line x1="559.0335998535156" y1="0" x2="559.0335998535156" y2="377.95999908447266" fill="rgb(0, 0, 0)" stroke="rgb(60, 60, 60)" stroke-width="1px" opacity="0.25"></line><line x1="698.7919998168945" y1="0" x2="698.7919998168945" y2="377.95999908447266" fill="rgb(0, 0, 0)" stroke="rgb(60, 60, 60)" stroke-width="1px" opacity="0.25"></line><line x1="838.5503997802734" y1="0" x2="838.5503997802734" y2="377.95999908447266" fill="rgb(0, 0, 0)" stroke="rgb(60, 60, 60)" stroke-width="1px" opacity="0.25"></line><line x1="978.3087997436522" y1="0" x2="978.3087997436522" y2="377.95999908447266" fill="rgb(0, 0, 0)" stroke="rgb(60, 60, 60)" stroke-width="1px" opacity="0.25"></line><line x1="1118.0671997070312" y1="0" x2="1118.0671997070312" y2="377.95999908447266" fill="rgb(0, 0, 0)" stroke="rgb(60, 60, 60)" stroke-width="1px" opacity="0.25"></line><line x1="1257.8255996704102" y1="0" x2="1257.8255996704102" y2="377.95999908447266" fill="rgb(0, 0, 0)" stroke="rgb(60, 60, 60)" stroke-width="1px" opacity="0.25"></line><line x1="1397.583999633789" y1="0" x2="1397.583999633789" y2="377.95999908447266" fill="rgb(0, 0, 0)" stroke="rgb(60, 60, 60)" stroke-width="1px" opacity="0.25"></line></g><g><line x1="0" y1="377.95999908447266" x2="1397.583999633789" y2="377.95999908447266" fill="rgb(0, 0, 0)" stroke="rgb(60, 60, 60)" stroke-width="1px" opacity="0.25"></line><line x1="0" y1="346.4633324940999" x2="1397.583999633789" y2="346.4633324940999" fill="rgb(0, 0, 0)" stroke="rgb(60, 60, 60)" stroke-width="1px" opacity="0.25"></line><line x1="0" y1="314.96666590372723" x2="1397.583999633789" y2="314.96666590372723" fill="rgb(0, 0, 0)" stroke="rgb(60, 60, 60)" stroke-width="1px" opacity="0.25"></line><line x1="0" y1="283.4699993133545" x2="1397.583999633789" y2="283.4699993133545" fill="rgb(0, 0, 0)" stroke="rgb(60, 60, 60)" stroke-width="1px" opacity="0.25"></line><line x1="0" y1="251.97333272298178" x2="1397.583999633789" y2="251.97333272298178" fill="rgb(0, 0, 0)" stroke="rgb(60, 60, 60)" stroke-width="1px" opacity="0.25"></line><line x1="0" y1="220.47666613260907" x2="1397.583999633789" y2="220.47666613260907" fill="rgb(0, 0, 0)" stroke="rgb(60, 60, 60)" stroke-width="1px" opacity="0.25"></line><line x1="0" y1="188.97999954223636" x2="1397.583999633789" y2="188.97999954223636" fill="rgb(0, 0, 0)" stroke="rgb(60, 60, 60)" stroke-width="1px" opacity="0.25"></line><line x1="0" y1="157.48333295186364" x2="1397.583999633789" y2="157.48333295186364" fill="rgb(0, 0, 0)" stroke="rgb(60, 60, 60)" stroke-width="1px" opacity="0.25"></line><line x1="0" y1="125.98666636149093" x2="1397.583999633789" y2="125.98666636149093" fill="rgb(0, 0, 0)" stroke="rgb(60, 60, 60)" stroke-width="1px" opacity="0.25"></line><line x1="0" y1="94.48999977111822" x2="1397.583999633789" y2="94.48999977111822" fill="rgb(0, 0, 0)" stroke="rgb(60, 60, 60)" stroke-width="1px" opacity="0.25"></line><line x1="0" y1="62.99333318074548" x2="1397.583999633789" y2="62.99333318074548" fill="rgb(0, 0, 0)" stroke="rgb(60, 60, 60)" stroke-width="1px" opacity="0.25"></line><line x1="0" y1="31.49666659037274" x2="1397.583999633789" y2="31.49666659037274" fill="rgb(0, 0, 0)" stroke="rgb(60, 60, 60)" stroke-width="1px" opacity="0.25"></line><line x1="0" y1="0" x2="1397.583999633789" y2="0" fill="rgb(0, 0, 0)" stroke="rgb(60, 60, 60)" stroke-width="1px" opacity="0.25"></line></g></g></g><g><g><line x1="0" y1="346.4633324940999" x2="1397.583999633789" y2="346.4633324940999" fill="rgb(0, 0, 0)" stroke="rgb(153, 153, 153)" stroke-width="1.5px"></line></g></g><g><g><line x1="139.7583999633789" y1="0" x2="139.7583999633789" y2="377.95999908447266" fill="rgb(0, 0, 0)" stroke="rgb(153, 153, 153)" stroke-width="1.5px"></line></g></g><g><g><g><g><g><path style="fill: none;" stroke="rgb(0, 119, 187)" stroke-width="2px" d="M141.01622556304932,314.47453048825264L142.69332636260987,317.55037683496874L142.90296396255494,312.2147250090327L143.6716351623535,314.3840644192316L144.71982316207885,314.4233019578424L146.3270447616577,316.5096769432227L150.58967596054077,317.6974089169116L150.79931356048584,313.3829792007797L151.42822636032105,312.8297536458578L155.7607367591858,312.50140817234757L156.11013275909423,309.3421119411961L157.5775959587097,301.5353774888696L158.41614635849,304.74669122533464L158.83542155838012,296.8203655602611L161.28119355773927,292.06854732648503L161.42095195770264,292.17253244799537L161.97998555755615,304.0481543030141L164.00648235702513,300.34416195221365L165.40406635665894,293.20035324934895L169.17754315567018,290.88296027691104L170.64500635528563,277.68106964039407L171.90283195495604,276.6501071146467L172.88114075469971,285.87432432482535L177.21365115356446,280.58177758595605L179.10038955307004,278.39053922193455L180.21845675277712,279.0443452104473L180.70761115264892,276.4838125747534L180.7774903526306,270.02613749365094L183.08350395202638,269.1043485638187L184.06181275177005,276.4254438116549L184.62084635162353,273.92820319396446L184.97024235153197,265.5399626703594L185.94855115127564,262.4755605393551L186.64734315109254,265.55827365015284L189.65214875030514,258.5494638292794L190.21118235015868,261.2340739015759L190.77021595001221,259.89202741611075L192.58707514953613,256.1339870263354L193.21598794937137,254.8634336345429L193.49550474929808,250.1640182722196L193.63526314926148,254.23426488101614L194.61357194900515,250.7707878556679L194.75333034896852,246.72415997905895L195.24248474884033,258.07597488951666L195.80151834869386,251.1072721998123L196.22079354858397,251.84740474150593L198.17741114807131,254.2600259284645L205.79424394607543,248.81770282378315L206.98219034576417,243.58376729912774L207.61110314559934,243.3962184772509L207.68098234558107,243.2836891841258L208.1002575454712,236.326275791587L208.51953274536132,229.19901526322406L209.77735834503176,238.70245057951675L209.9869959449768,235.54607429073815L210.615908744812,238.57360267221978L214.0399895439148,237.43730720825997L214.24962714385984,237.73980076083353L214.66890234374998,236.9370260614284L215.08817754364014,240.39244456558217L216.13636554336549,235.57579985143005L216.55564074325562,233.67008385388806L216.90503674316406,239.41655007200697L220.5387551422119,243.84870063382746L220.88815114212036,237.64955349237735L220.95803034210203,240.8199610241513L222.21585594177247,231.89522640277508L223.1242855415344,232.44601061564424L226.6881247406006,234.74502280526403L227.8760711402893,236.1244301190359L229.2736551399231,232.0307203525533L231.71942713928223,237.4486611402569L231.92906473922727,238.73088395098074L232.90737353897094,245.40584262310998L233.1868903388977,245.47373450259093L236.5410919380188,231.73467799699142L237.03024633789062,226.44405658647915L238.56758873748777,210.4741629378329L239.40613913726807,209.75066422718749L240.10493113708498,209.3165650008002L242.20130713653566,219.88308460540844L242.96997833633424,207.5218505801396L243.52901193618771,205.02646431972403L243.9482871360779,205.497774225373L246.18442153549194,208.73337266160982L248.21091833496095,210.67473172335193L249.32898553466796,215.77663048419373L250.447052734375,208.01079060025825L250.72656953430177,207.28836999369352L251.91451593399046,210.79200095355125L254.3602879333496,202.0672003890253L257.2952143325806,203.72221586695377L257.9241271324158,199.79387099896513L258.3434023323059,195.4683224162736L258.69279833221435,206.65278489994677L259.1819527320862,209.42637906635406L259.8108655319214,204.20063974955443L260.78917433166504,201.06519615947462L260.92893273162844,200.16820083637592L261.1385703315735,198.64573281156754L261.7674831314087,212.49631446091973L264.21325513076783,202.10551766249722L267.35781912994383,198.8238520762912L268.61564472961425,190.94922773887265L269.2445575294494,174.41320316503177L270.15298712921145,176.302838392117L270.3626247291565,169.562452880775L270.92165832901003,177.32947154535955L273.7168263282776,180.02114108221195L274.9047727279663,186.55749695906917L275.6035647277832,183.5894146685395L275.8132023277283,185.74564861801824L277.2107863273621,178.18095150916318L278.3288535270691,182.50057072239247L279.5866791267395,175.24963394083855L280.4252295265198,173.85188436475366L282.03245112609864,174.98177628100098L284.61798152542116,177.62825309264767L284.8276191253662,176.26332668678825L284.8974983253479,172.49155835042518L285.4565319252014,171.21276817955646L285.73604872512817,173.39830656988272L286.225203125,164.86692129458694L289.92880072402954,167.6222567770027L290.4179551239014,161.40129141885896L291.04686792373656,162.59006635871845L292.58421032333376,164.28760215358326L292.8637271232605,159.4004986448073L293.42276072311404,160.4053198633383L293.9817943229675,161.99248342540605L294.26131112289426,159.00769823885008L295.65889512252807,145.40557715552677L296.0082911224365,160.86680444831234L296.0781703224182,170.1435408239836L296.4275663223267,159.96124935420005L297.475754322052,156.80468696517735L297.82515032196045,150.97366620796717L299.15285512161256,160.27057455597998L300.2709223213196,158.95882374814363L300.9697143211365,155.21896077059438L301.8082647209167,156.9121263078614L303.62512392044067,154.97521313737417L304.2540367202759,159.71869022077667L306.69980871963503,144.84790151373358L306.7696879196167,141.83105327520258L306.90944631958007,139.03667350113486L309.9841311187744,129.48587898910105L310.54316471862796,129.66102726757563L311.17207751846314,129.7661162346604L311.31183591842654,128.84489878396212L311.661231918335,126.32362665164482L313.4082119178772,130.71648835794934L313.47809111785887,132.3679345507829L314.1768831176758,131.39026060458477L314.31664151763914,126.86657291306923L314.6660375175476,133.0107977767023L315.64434631729125,127.83889521633981L316.0636215171814,125.72002451107147L316.6925343170166,120.51161876411385L317.74072231674194,114.43376282309185L318.1599975166321,130.4724658774616L321.8635951156616,120.41027109110047L323.0515415153503,107.48305840263976L327.3840519142151,105.6323557752583L327.73344791412353,120.27026749401568L328.6418775138855,114.28895206103294L331.22740791320797,117.59005861788728L332.20571671295164,117.60218089010164L334.65148871231077,117.60945425343027L340.45146231079104,107.77110996193596L341.7092879104614,105.80518671083593L342.12856311035154,112.49979940776916L343.8056639099121,104.70531705453925L347.0899863090515,102.98144013544879L347.649019908905,94.07294733640128L350.16467110824584,93.64920581171856L351.49237590789795,90.44214840406147L352.0514095077515,95.40780977611132L352.2610471076965,93.46585244459544L354.21766470718387,93.28494887663504L356.31404070663456,97.11349005965542L360.2272759056091,96.45780227662021L360.64655110549927,90.15876462110418L361.76461830520634,90.31642535159114L363.0224439048767,88.44248012798505L363.09232310485834,82.39675883907563L365.4682159042359,87.62776354427228L366.16700790405275,84.86074138169539L366.3766455039978,91.07469473174251L366.4465247039795,80.03900427753354L366.58628310394283,81.29175665260135L366.6561623039246,77.12205392289627L368.4031423034668,83.47866976361553L370.7091559028625,88.27691009899627L373.5043239021301,88.20304180737725L375.67057910156245,84.22163750860926L377.5573175010681,81.83279492934844L377.90671350097654,83.35230187463941L379.44405590057374,77.37411022517L380.77176070022585,78.70854939023405L381.81994869995117,74.58785873452672L382.93801589965824,79.98961098869557L384.96451269912717,82.24639151024769L385.17415029907227,76.71056400653498L386.92113029861446,79.2946924900022L389.9259358978272,73.95527376343853L391.323519897461,71.73589335844946L392.58134549713134,68.43572345355767L392.7211038970948,68.42416317252093L392.86086229705813,73.33858115864462L393.2801374969482,79.24004444316625L395.23675509643556,75.89102659723522L396.2150638961792,78.80297004442241L400.1282990951538,70.7074278032432L400.40781589508055,74.70853993707794L401.1764870948792,75.14066555548055L404.810205493927,73.43139926462379L405.15960149383545,74.37438115200803L406.2776686935425,74.94017028443858L406.6270646934509,72.32683127104946L406.76682309341425,66.82174453921942L407.4656150932312,71.39285914771455L409.77162869262696,65.27709043426933L410.61017909240724,70.46606668474453L414.2438974914551,72.5951816040805L415.01256869125365,69.93556723188544L416.2005150909424,77.19823608711079L418.1571326904297,74.66594158360192L420.81254228973387,74.13083571244579L421.58121348953244,67.90414720405721L421.79085108947754,72.04230074661723L425.7739654884338,73.54092204120411L426.1233614883423,70.50301149415958L426.8920326881409,70.64880682783127L431.9932142868042,78.61045067562742L432.76188548660275,74.52899950576278L432.83176468658445,70.11158714194568L432.9715230865479,71.39822304745206L433.3209190864563,73.154475421705L433.390798286438,66.33406019866356L435.13777828598023,68.1474360505336L435.48717428588867,73.17254488545228L435.69681188583377,66.34490187691193L436.25584548568725,72.09102438127923L437.653429485321,69.63307289820472L437.86306708526615,68.15830200835995L437.93294628524785,69.24198113635146L438.9811342849731,69.89218861314635L440.51847668457026,75.20366725396906L441.4269062843323,71.50065862181862L441.5666646842957,71.24739510442663L445.0606246833801,66.17408283924573L446.7377254829407,70.0199912967812L447.2268798828125,66.42191138560759L447.6461550827026,64.26306343890343L449.3232558822632,61.98348383993175L449.53289348220824,62.584277742447114L453.6557662811279,69.83464990060037L454.8437126808167,70.24778987169566L456.31117588043213,73.44848634720029L456.52081348037717,66.51046675396077L459.6653774795533,64.3161966599153L459.8750150794983,63.98390543443719L460.9930822792053,59.84744737535374L463.15933747863767,61.302655863700295L465.11595507812495,62.17578095670814L465.6749886779785,61.71538518156376L465.95450547790523,68.32904353312125L466.51353907775876,73.28150937500482L469.0990694770813,68.37882223254178L469.4484654769897,63.46866828516562L470.5665326766968,65.44393007148568L471.68459987640387,61.70773298853197L472.2436334762573,62.418827231607224L472.8725462760925,63.829754608401515L474.2701302757263,62.707769372579776L474.340009475708,61.05030740013757L475.1785598754883,64.97718437141805L475.3183182754517,59.45914390659311L477.9737278747559,58.11686128959644L478.81227827453614,60.26430421224586L480.13998307418825,59.584228303937266L481.7472046737671,61.144724420850366L483.1447886734009,63.065292921947446L486.498990272522,64.21763402260564L487.12790307235724,64.90903868300057L487.3375406723023,65.32388147923751L491.2507758712768,62.619974664132144L492.6483598709106,66.90325556076391L492.78811827087407,60.614786620200675L492.85799747085576,62.747330241557506L496.56159506988524,65.99539807627002L497.95917906951905,70.89705126994494L498.5182126693726,66.94814736950582L501.8724142684936,60.641721705445775L503.13023986816404,56.85786630700977L503.6892734680176,58.52463639174471L505.85552866744996,62.47751093543309L509.3494886665344,62.880693999747905L512.144656665802,62.138333007387644L513.2627238655091,57.75583308817488L514.2410326652526,57.094874798545504L515.7084958648682,59.65111231761534L518.5036638641358,63.153396490955515L520.0410062637329,61.31768367116297L520.3904022636414,66.12188096498244L523.7446038627625,61.130232693680796L525.1421878623962,58.1352437308999L525.2819462623596,64.21241700082459L527.5180806617736,68.84299179372852L529.1951814613342,65.71571168377602L530.0337318611145,62.85507278685526L530.1734902610779,63.10723111060122L530.592765460968,65.2270677667471L533.1782958602905,59.60907394379052L535.1349134597779,57.22254848096571L535.2746718597413,61.69625818896577L535.554188659668,61.427671520918295L536.6023766593934,62.25079035103903L539.4674238586426,60.77611998721318L539.6770614585877,60.875588599866774L543.3806590576172,59.950998936509734L545.5469142570495,59.396245138495544L545.6167934570312,63.00047618348367L546.80473985672,63.194473148578254L547.0143774566651,59.3737880038384L549.3902702560425,59.04991857889274L549.5300286560058,59.83986775487449L550.0191830558776,51.4553997819213L552.5348342552185,55.2831564766916L554.002297454834,56.59553966260472L555.6793982543945,56.3986987432034L556.028794254303,64.15476083915587L556.4480694541932,62.90277311103239L558.3348078536987,60.18303881226001L559.7323918533325,59.53546906394564L560.0817878532409,55.20984389116052L561.1299758529664,52.6144687874895L561.4793718528748,60.89995203477832L564.4841774520874,60.94988782840585L566.2311574516297,58.027036811734945L566.370915851593,58.24186786363066L567.4889830513001,62.307849818564705L568.0480166511535,55.889001512982816L568.187775051117,57.9433175153286L571.6817350502015,57.20736545483777L573.0094398498535,56.76579421854319L573.7781110496521,63.390747293410584L573.9178694496155,59.49155249073772L574.3371446495056,58.13630644008322L575.2455742492676,59.2917004715888L576.503399848938,59.00066605954299L579.2286886482239,56.85750375041721L580.8359102478028,59.5086896887384L581.1853062477112,58.14658875888364L582.8624070472717,55.36078653907248L583.6310782470704,55.657846869084096L584.3997494468689,59.77316639088758L584.8889038467407,62.24235810396971L585.3081790466308,62.739602300869876L586.9852798461914,65.00649048090821L591.1081526451111,59.47672757228719L593.6238038444519,53.2060573342672L593.6936830444336,54.36500934620091L593.9731998443604,52.107568060513586L595.3707838439941,49.76883245815219L595.4406630439759,51.31840358958277L595.5105422439575,56.18522959223776L596.069575843811,54.183971039084895L599.1442606430054,54.95175756909157L599.6334150428772,52.45961699424805L599.8430526428223,53.91714514218944L601.1707574424744,52.823120369055914L604.9442342414856,54.13524716707411L605.5731470413208,56.891064907783345L605.7129054412842,55.59174305936142L605.9924222412109,58.74923327410494L606.4116974411011,63.5965398957984L606.6213350410461,57.646486390272116L607.110489440918,57.02926677980389L607.6695230407715,57.64320584447205L607.8791606407166,55.05875679042555L608.7177110404969,60.39798317464158L610.6044494400024,62.61724817422214L610.8839662399292,63.948807173970465L611.6526374397278,62.77920091192112L612.4213086395264,65.030249647539L617.1730942382812,60.47525390321482L618.1514030380249,55.77371479472197L618.7104366378784,54.921332991524594L619.6887454376221,56.378445571504415L619.7586246376038,52.33135896474664L621.5754838371276,55.808731986386874L624.3007726364135,51.005259982726955L626.3272694358826,54.028801766225854L626.5369070358277,56.82719766727445L628.3537662353516,57.52196437695437L629.611591835022,54.986011909914964L629.8911086349488,53.464440429691194L631.6380886344909,54.520039203455326L635.2718070335388,53.18485680581546L636.3199950332641,57.30510152197735L636.8790286331176,57.808706689776045L636.9489078330994,53.1895156357096L638.4862502326965,52.386542665168065L639.7440758323669,61.74746719233457L642.5392438316345,58.5055844300922L644.00670703125,59.51326726559415L646.1729622306824,64.05496029069201L649.8765598297119,59.890080289106606L650.6452310295106,61.32823561195204L651.9030566291809,60.22258714376085L652.6018486289978,59.559198062846235L652.6717278289796,53.255539628602605L653.9994326286316,53.41042789185303L655.6066542282105,57.440444173599815L656.9343590278626,57.88991228074957L659.0307350273133,61.11240563788692L659.6596478271484,56.15600583552532L659.8692854270935,57.119249277904885L660.3584398269653,57.69719534333268L661.0572318267822,53.12260882784358L661.2668694267273,47.42504442570271L661.6162654266358,50.89640160106222L662.3150574264527,48.05786175153213L664.6210710258483,52.26036282750903L665.9487758255004,50.84478014929857L667.1367222251893,50.97970137332146L671.4692326240539,54.99773743153173L673.9150046234131,49.53439241886474L675.1029510231018,50.19346873506112L675.8017430229187,50.58891452477894L676.1511390228271,53.77899449145713L676.9198102226258,55.693042471464025L677.339085422516,54.872929597569794L677.8282398223877,57.33367436608074L679.0860654220581,54.87303790339075L679.4354614219666,56.34946851862412L679.784857421875,53.29824356396756L681.0426830215454,56.388862745919425L681.811354221344,55.29042176224311L682.020991821289,52.66281551013901L683.4185758209228,51.08625175887653L683.9776094207764,51.12458433906818L684.6764014205933,54.10039638003059L687.1221734199523,50.96452944986237L687.4715694198609,52.0358217846088L691.7342006187439,52.67859718545674L691.8040798187255,51.09572076406721L694.0402142181397,52.114536573131716L697.0450198173523,51.74155522762135L697.6040534172058,46.59641226556937L698.1630870170593,47.44640981213473L698.232966217041,48.940679171023135L700.6088590164184,45.90015746255955L701.3775302162171,50.96574025412548L702.2160806159973,59.91071491475992L703.404027015686,52.48217890880164L707.5967790145874,55.89922395281985L709.2738798141479,54.01236765543416L711.3702558135986,51.89598304605363L711.6497726135253,54.56323560422186L712.6280814132691,57.14785797007198L713.8160278129578,53.77727723483633L714.2353030128479,54.70774128654239L717.1702294120788,50.34466556282024L718.2882966117859,53.632445114281836L719.0569678115844,54.62084201420964L719.6858806114197,50.292525999420604L720.2449142112731,48.67980722149633L721.642498210907,50.66498844758917L721.7822566108703,49.887555521346655L721.9918942108153,52.37390825844858L722.1316526107789,54.84999073165886L722.550927810669,56.335640215585045L723.9485118103028,58.21130073688988L724.1581494102478,57.36815538777449L724.5075454101562,56.86226817830527L725.1364582099915,53.605923359776284L731.4255862083435,52.63638729960803L731.4954654083251,57.96029064920202L731.6352238082885,53.28046601136515L732.6135326080322,53.42538372151057L732.893049407959,54.49660517854693L733.5219622077942,62.02923386941279L733.591841407776,59.65891526728825L733.9412374076843,53.315369951267826L734.2906334075927,52.46205525450296L735.3388214073182,53.91860809834236L738.3436270065307,53.80826897369684L738.8327814064025,52.75779466796041L739.1821774063111,52.127510084518576L740.1604862060547,51.749339334453396L740.7893990058899,53.49097854631265L743.0954126052856,52.567420411529895L743.1652918052672,55.95036885445677L743.7942046051025,56.01159625831468L746.4496142044068,57.0326035315785L747.0086478042602,54.692395402689385L747.0785270042419,51.31972886345761L747.3580438041686,51.264670601816874L749.5941782035827,49.263093982934095L752.878500602722,50.03068967350276L753.158017402649,55.41260124258969L754.7652390022279,52.736123198347L756.0230646018982,52.114507202750474L756.2327022018433,55.67862092918915L757.7001654014588,47.97438085556087L758.4688366012573,47.28892013518049L760.145937400818,45.89337287200317L760.6350918006897,47.02458617599501L761.8230382003785,51.6403974821867L761.9627966003418,52.44134260400347L762.1724342002868,50.953368015195224L763.6398973999023,49.07631243096108L763.7796557998657,48.93434991136979L764.1290517997741,50.8177140615133L764.8977229995728,49.9791908897011L765.7362733993531,48.491806155664676L766.9242197990417,50.552187808090196L768.1820453987121,54.74122929239297L768.6013205986023,49.38048753538146L769.3001125984192,53.053938297818604L770.6278173980713,52.30519626243347L772.5145557975768,55.79303436499896L773.0735893974305,54.932924733690754L774.5410525970459,55.40112978585506L776.0085157966614,57.650594479051904L777.2663413963319,57.03173163307173L779.5024757957458,53.707601432636125L779.9916301956177,52.69739414332395L783.7651069946288,50.12272810783833L784.4638989944458,52.51501181034354L784.9530533943176,49.02902787710104L786.8397917938231,53.82733333379946L788.3072549934388,52.76923328402194L789.0060469932556,53.11864408510462L790.1241141929627,56.281103058601616L790.7530269927978,60.147120104598116L792.9891613922119,54.592563684602794L794.107228591919,55.196913156402275L794.4566245918274,54.57525200853274L797.46143019104,53.21798448886193L797.671067790985,54.37216563895777L799.0686517906189,58.01748682186263L799.5578061904909,56.26759620780899L801.3746653900147,52.26484934652939L801.8638197898864,56.753097046405685L806.2662093887328,58.46177483538224L806.8951221885682,60.47125233971735L807.3842765884399,57.739855518521836L808.0830685882569,52.16393410200794L808.2927061882019,51.771193744947084L809.8300485877991,46.614195375964755L810.5987197875976,47.457079678372L811.3673909873962,46.97853942886718L812.4854581871033,47.67568611011342L814.1625589866638,52.03105744265781L814.5818341865539,53.66000941123531L816.1890557861327,56.605922254280074L816.8878477859497,57.3891991291577L817.4468813858032,55.890623592186046L821.7095125846862,50.07012411525733L822.3384253845215,57.404803569540775L822.9673381843567,56.88425708736503L825.4131101837158,54.60338753616128L827.3697277832031,48.31351165069333L827.5793653831481,48.47666944320912L830.3745333824157,46.60602245682037L832.0516341819764,47.452175926885275L836.5937821807862,48.94413883987352L839.5287085800171,47.870774925768046L842.0443597793579,48.211027408253926L842.3937557792664,50.38372055964385L842.6033933792114,55.62441977427437L843.5817021789551,50.89467265545949L844.4202525787352,51.0096368770179L846.0274741783143,51.078615409953045L846.4467493782043,49.151460867815786L847.4949373779298,53.900793128228315L847.9142125778199,51.82903832973017L848.6130045776366,51.57025628158033L850.2901053771974,45.509362066995664L851.4780517768859,49.74699218583794L853.015394176483,51.30529942619421L855.6708037757872,51.2560129394588L856.439474975586,51.22644104741761L857.8370589752197,57.114322897887746L858.3262133750915,54.74142702247491L858.6756093749999,49.380606173430635L861.610535774231,49.11692615685149L864.1261869735717,47.974447315954876L866.0828045730591,49.25750167331523L866.2225629730225,47.07452179488399L866.2924421730041,50.68608802257097L866.4322005729675,49.90021526633575L867.480388572693,48.44442078164536L867.899663772583,47.570944090831176L868.2490597724914,53.9367538929867L870.2755565719605,55.78769811238175L871.253865371704,50.008368827374795L872.0225365715027,46.54077125637059L872.7213285713195,49.381566868513744L873.0008453712464,50.10177340485052L873.0707245712281,53.48670981950005L875.0273421707153,48.62777585164571L875.6562549705507,50.633769625678894L877.2634765701295,51.83736589009868L877.3333557701111,50.59098198685234L878.1719061698913,49.843151644904594L880.3381613693238,46.44164094688847L880.9670741691589,49.32208868282453L882.1550205688476,47.11327400058957L882.504416568756,46.772256022197666L883.1333293685914,42.63056191136599L883.6923629684447,49.98825375435848L884.2513965682984,50.46578553635737L885.4393429679869,45.83095045081103L887.5357189674378,47.971403554228914L888.2345109672546,46.3028629234322L890.8200413665771,48.254551037801605L891.4489541664124,46.47275141357579L891.5188333663941,47.3722133009386L891.9381085662842,53.817515419051176L893.0561757659913,49.810530042325524L893.545330165863,47.406338816290145L895.5019477653505,46.94809491161806L895.5718269653321,49.62596106166228L896.2007397651672,49.26413908979055L896.5501357650757,50.03131673761658L897.3188069648743,46.55454000251564L897.9477197647094,47.42128645430256L898.9260285644531,48.9256051563238L901.5814381637573,50.812467208485714L901.7910757637023,48.0075011159862L902.4199885635377,48.29306312238492L904.1669685630799,47.480129495274866L904.4464853630066,50.92945264280553L905.0753981628417,47.09342154562904L906.0537069625855,44.791802887323115L906.4729821624755,43.41083169233957L906.6127405624391,45.53506146819694L908.9886333618164,47.793870164660404L909.4079085617064,49.14915538253854L909.8271837615968,44.05670152757051L909.96694216156,47.89112503123374L910.7356133613586,53.14459162627912L911.0850093612671,52.35958825950979L912.0633181610107,47.95150291565159L912.692230960846,53.18081835692982L913.8102981605531,48.44424097410359L915.5572781600953,49.5393778682045L916.8849829597474,54.13354332846154L917.5138957595825,51.96868844987006L918.7717213592529,48.70123386081684L920.6584597587585,47.72503193833404L922.2656813583375,49.107852446742754L922.4054397583009,49.937544751787925L922.4753189582825,46.49827681101846L926.0391581573485,44.43471604655679L926.5981917572022,49.102204573574625L926.8078293571473,51.90269768978533L927.4367421569824,53.582993559511806L930.0921517562866,53.60690025039855L932.258406955719,52.63697343398144L933.6559909553529,50.08647568223279L934.983695755005,50.52471869308198L937.1499509544373,46.850581175794844L937.7089845542909,48.58318198921921L937.8487429542542,43.717117491578904L940.2246357536316,44.734562116791324L941.4125821533203,45.34502889191879L942.810166152954,47.67985061889357L944.7667837524415,49.080743655078436L944.9764213523865,44.99992532204362L945.0463005523682,46.48851764601932L945.4655757522582,46.39740220945549L945.6053341522216,45.358462116568205L946.7932805519104,45.719368891784825L947.3523141517638,48.888725449762376L947.9812269515992,45.868985229803116L949.0294149513245,44.05714109782758L950.1474821510315,47.89138877338797L952.8727709503173,49.20766654777509L953.7113213500977,49.01316238145819L953.851079750061,53.81781403641378L954.549871749878,53.74779253653969L955.3185429496765,51.73723797471695L956.2968517494202,49.54663440667417L956.4366101493836,55.12216808249258L957.6245565490723,51.57759247133947L958.9522613487244,49.450847104647664L961.4679125480651,50.143341546530905L963.3546509475708,50.55883821166083L963.7739261474609,56.713761196433666L964.4028389472962,53.51681917065338L966.4992149467469,50.614383124235985L968.1064365463257,50.84146315828389L968.1763157463073,45.0720861930177L969.4341413459778,43.579001675756274L971.390758945465,43.66742179634866L971.7401549453735,48.64182802344976L973.6268933448791,46.705117604964755L974.5353229446412,48.49590384672109L974.6750813446046,49.570375591774905L974.7449605445862,51.199329469756435L976.14254454422,47.25534764179952L976.4919405441284,49.8103126997712L977.4702493438721,46.42193757980834L978.169041343689,47.341725000678196L978.5184373435975,47.893597453200016L979.0075917434692,50.19326258661141L980.3352965431213,51.57306166665825L981.1738469429015,53.38521194563555L983.6196189422607,48.56687712732702L984.248531742096,49.612959560138506L987.9521293411254,47.28779652697796L989.0003173408509,48.845511199929035L989.7689885406495,49.78014000369967L990.0485053405762,50.34091728596212L991.1665725402833,47.7245711624721L992.0750021400452,46.154763488378194L993.4725861396789,47.18142054582006L994.1014989395143,51.734498104081695L994.6605325393676,51.513532146191324L997.1761837387086,48.42814007860966L998.5737677383423,48.54544649995893L998.7834053382874,47.63155952181933L999.9014725379944,44.13041484208816L1001.0195397377015,48.91962385089346L1005.9809629364014,51.79314925617666L1006.6098757362365,47.61163951365171L1008.7761309356689,50.02408782288239L1010.103835735321,49.503015146522614L1010.313473335266,51.158913202604936L1011.8508157348632,53.13672286720356L1016.392963733673,47.43351284931873L1016.8122389335633,47.9486701623843L1016.9519973335266,44.32068122642721L1018.4194605331421,45.096700357700286L1019.9568029327393,41.625228512667604L1021.9832997322081,43.47942872944452L1025.197742931366,42.62340719761238L1027.1543605308532,41.12552344756398L1031.277233329773,51.053772337975545L1032.39530052948,49.136555024629274L1034.5615557289123,46.01768297472324L1035.1205893287658,46.11490140667797L1036.5880525283815,47.15750329679997L1038.3350325279237,45.814522768974825L1038.684428527832,47.96154694512711L1039.592858127594,47.28121978892028L1040.501287727356,44.90448183329789L1040.920562927246,43.478439059924426L1043.855489326477,45.57562588874782L1043.9253685264587,50.771021309838375L1044.274764526367,46.99836274584868L1045.3229525260924,45.719038438404084L1049.3759461250306,50.85706883963218L1050.5638925247192,49.018532925623276L1052.450630924225,50.86822387006538L1052.5205101242066,50.00949677483237L1053.07954372406,47.52571885579425L1053.9180941238403,47.019722935320544L1054.7566445236207,48.6846670449346L1055.8048325233458,48.699362679753904L1056.0843493232728,49.6924508915946L1057.2722957229614,44.382678833004206L1058.5301213226319,43.16535725974819L1059.7879469223021,45.38777680864206L1060.8361349220277,51.64258269272409L1061.5349269218443,49.4898412374784L1061.7445645217897,50.166738026229325L1062.5831149215699,50.572876099479856L1062.6529941215515,48.848017281531895L1062.9325109214783,48.79737282171226L1064.8891285209656,47.782715314871325L1066.7059877204895,46.18964997981766L1069.0120013198853,42.28099828593798L1070.0601893196106,40.92007810055935L1072.5758405189513,41.087796820281255L1072.92523651886,47.09405303780932L1076.279438117981,47.744994275478746L1076.5589549179076,51.08837151092786L1077.9565389175416,48.17304369745153L1081.3806197166443,45.439576178416644L1083.1974789161682,47.73657899079228L1083.4071165161133,53.05186400201421L1086.3420429153443,52.303951684950846L1087.4601101150513,48.90239180186535L1089.9058821144104,46.86145587201406L1090.9540701141357,44.652623483154116L1091.5131037139893,45.29586571173644L1091.9323789138793,42.72899855603839L1094.2383925132751,41.188878262619596L1095.426338912964,43.21761857941573L1095.6359765129089,42.46632110759515L1095.845614112854,42.01554262450276L1096.7540437126158,43.71361719654567L1098.6407821121215,43.748191108822255L1099.898607711792,47.70601877998479L1100.3877621116637,49.096444551733214L1100.8769165115357,48.94642918383306L1102.4142589111327,46.88787830119469L1103.8817221107483,45.6527477716117L1104.7901517105101,45.89594028481099L1107.2359237098694,45.0575849617814L1108.8431453094483,48.49165509176021L1109.0527829093933,48.583555507849326L1109.9612125091553,48.63869575750266L1110.240729309082,46.703238245396506L1110.6600045089722,44.55769290718354L1113.6648101081848,46.223178197103266L1113.7346893081665,42.30111521630937L1115.0623941078186,41.91641908973128L1115.2720317077637,41.68560141378447L1115.831065307617,41.54711080821636L1115.900944507599,46.3853705996213L1115.9708237075806,52.241138967311656L1116.3900989074707,54.770329156976686L1117.7876829071045,52.35075994697917L1117.927441307068,52.86756008287887L1119.1852669067382,53.17764016441873L1122.6792269058228,51.395146551444384L1123.6575357055665,48.357108721761506L1124.0768109054566,46.53428602395178L1126.452703704834,53.314759052859074L1129.3177509040834,50.49314705355937L1131.2743685035705,51.75299234682706L1133.1611069030762,48.57181619899103L1133.5105029029846,49.61592300313691L1133.9297781028747,49.25811625467526L1135.5369997024536,47.07489054370001L1137.2839797019958,44.780684286165695L1138.1225301017762,42.41988970069593L1138.1924093017578,45.92476710415991L1138.611684501648,46.05915188433994L1139.2405973014831,50.07686607624453L1140.4285437011717,47.566140436641604L1141.2670941009521,45.07543422193061L1141.6863693008422,41.612468831205774L1143.083953300476,45.44031458246576L1143.363470100403,46.75275120227258L1145.0405708999633,50.49302566700413L1145.1803292999268,48.800107022046404L1145.8092420997618,47.78435583507189L1149.3032020988464,46.19063429193801L1150.980302898407,45.23440136605757L1152.587524497986,52.53482825812256L1155.1031756973266,46.08810525292097L1156.7802764968872,45.17288394264739L1156.9200348968507,45.60802198743244L1156.9899140968323,42.91629232145607L1159.086290096283,40.316983690921006L1160.8332700958251,42.69448183639656L1161.1826660957336,45.10525155463108L1162.2308540954589,44.5831717236735L1162.6501292953492,43.28565299414976L1164.7465052947998,47.428495911181244L1164.8163844947815,45.9771183376036L1165.375418094635,49.04337511725356L1165.6549348945616,48.91458752314526L1166.074210094452,52.77439829047688L1167.1922772941589,54.10601391992674L1170.1970828933715,50.9678999738L1171.035633293152,49.08503160612395L1171.8043044929505,48.93958141646755L1172.5030964927673,47.86804047172444L1172.572975692749,51.16219922867526L1172.8524924926758,48.217340328099965L1173.1320092926026,48.4189666496531L1173.4115260925294,49.524213273534144L1174.599472492218,47.234548755015396L1175.0187476921083,54.71918752244636L1175.2982644920348,48.38299164246439L1175.4380228919983,45.565544945424335L1177.1850028915405,48.796431081946025L1178.5127076911926,47.782150271011574L1179.0018620910644,49.14212344634922L1179.0717412910462,48.973836520602674L1180.1898084907532,50.84140602705298L1180.3994460906983,47.04059357617746L1182.6355804901123,55.58708524609284L1182.705459690094,52.840813600448826L1182.7753388900758,49.22450895116407L1184.4524396896363,49.02326782349155L1185.4307484893798,50.87106480878634L1188.994587688446,46.07411801426838L1189.8331380882264,45.164491599455914L1194.2355276870728,44.618715750568356L1197.1704540863038,47.24406273408334L1197.4499708862304,45.866458431344824L1198.8475548858642,44.05562501875255L1200.5246556854247,41.9848541402481L1200.6644140853882,43.69520410599284L1201.8523604850768,43.737143254490604L1204.4378908843994,44.74657757453832L1205.2764412841798,44.367967335617834L1206.53426688385,48.07788451606211L1206.8836628837587,47.35102233148126L1207.023421283722,50.85198834452933L1207.7222132835388,49.99975545951071L1208.9800388832093,45.551332404702976L1210.0981060829163,41.89800774086916L1210.587260482788,39.70601294256892L1211.7752068824768,43.31217021833447L1212.194482082367,48.42867707664129L1212.6836364822389,56.41993534637106L1215.967958881378,52.35625282966663L1216.3173548812865,49.91804331964397L1217.4354220809937,45.50230512078298L1217.8546972808838,44.821403863364594L1218.5534892807007,46.38140477081191L1219.8113148803711,47.31740531528027L1220.3004692802429,47.87900564196133L1220.99926128006,47.23169500702079L1221.0691404800416,44.87476696415814L1221.1390196800232,50.3505059550846L1222.047449279785,49.69886602584393L1223.3751540794372,49.30788206829948L1224.772738079071,49.073291693772774L1225.5414092788697,46.96399580715854L1228.825731678009,42.74560578234252L1229.6642820777893,43.16738426030031L1230.4329532775878,44.404722178024144L1232.669087677002,46.13139575960764L1234.905222076416,45.19885824665943L1237.0714772758483,48.57641906268708L1239.657007675171,45.68160139755793L1241.3341084747315,45.913252460378715L1241.9630212745667,49.00505559091869L1242.3822964744568,44.954512483547774L1243.430484474182,42.52418661912526L1244.6184308738707,45.98734525521746L1245.5967396736146,46.09669877497441L1245.8063772735595,44.19376922493029L1247.1340820732116,45.02055315680218L1248.4617868728637,45.51662351592529L1254.052122871399,45.81426573139913L1256.3581364707948,44.02430939878519L1256.9171700706481,47.87168975396253L1257.3364452705382,45.258763812323195L1259.013546070099,45.65954990923797L1259.0834252700806,45.90002156738677L1259.5725796699523,48.997117055123454L1261.7388348693848,47.902561854918076L1263.6255732688903,46.2615579038457L1264.4641236686707,45.276955533202226L1265.6520700683593,46.65473577271456L1265.931586868286,45.51286225452361L1270.0544596672057,43.84346731265987L1270.9628892669677,43.82610117849072L1271.6616812667846,43.81568149798926L1271.9411980667114,43.80942968968844L1272.3604732666015,41.83713694280965L1273.6881780662536,49.51219877322461L1275.2255204658509,44.274527561982154L1276.133950065613,43.10046649713496L1280.2568228645325,41.41175902727758L1281.7941652641296,42.367076207261334L1282.0736820640564,49.83016233189568L1282.2134404640199,46.43384735908313L1282.2833196640015,50.301683361090454L1282.9821116638184,49.66957246944742L1284.3796956634521,48.306035103512386L1285.078487663269,47.487912683951436L1285.986917263031,46.0127684012657L1286.196554862976,47.09622349355254L1288.5724476623536,46.76202571797552L1289.2013604621886,46.56150705262928L1292.276045261383,45.45692502247243L1293.1145956611633,46.76271746627657L1296.8880724601747,50.499005425406494L1298.7049316596986,45.850882384240435L1299.054327659607,43.06200855954086L1300.4519116592407,43.35722592661938L1304.015750858307,50.42425216351046L1304.2952676582336,47.77457208900108L1306.5314020576477,44.21622238239729L1309.9554828567505,42.08121255843491L1311.3530668563842,45.7215608188032L1313.5892012557983,43.9686864512276L1314.2879932556152,46.854045154478854L1314.3578724555969,47.600989545480445L1316.104852455139,48.049156180081354L1316.4542484550475,46.34951449894373L1316.7337652549745,47.298271152159316L1317.712074054718,45.89898348219043L1320.647000453949,44.075140049259915L1321.6951884536743,46.91791731329829L1322.3939804534912,45.67077117887379L1327.634920452118,47.875295991066594L1330.2204508514403,41.323844230789064L1330.7096052513123,39.361514836520826L1332.3168268508912,42.12120052375644L1334.4830820503234,38.855657781352136L1336.8589748497009,41.817686290655274L1336.9288540496825,39.65782007244053L1338.4661964492798,40.33044200341004L1338.8155924491882,38.765473500093435" fill="none"></path></g></g></g></g><g opacity="0.2"><g><g><g><path style="fill: none;" stroke="rgb(0, 119, 187)" stroke-width="2px" d="M141.01622556304932,314.47453048825264L142.69332636260987,319.3958846429984L142.90296396255494,307.09249925613403L143.6716351623535,316.93520756562555L144.71982316207885,314.47453048825264L146.3270447616577,319.3958846429984L150.58967596054077,319.3958846429984L150.79931356048584,307.09249925613403L151.42822636032105,312.0138534108798L155.7607367591858,312.0138534108798L156.11013275909423,304.6318221787612L157.5775959587097,289.86775971452397L158.41614635849,309.55317633350694L158.83542155838012,284.9464055597782L161.28119355773927,284.9464055597782L161.42095195770264,292.3284367918968L161.97998555755615,321.85656172037125L164.00648235702513,294.7891138692697L165.40406635665894,282.48572848240536L169.17754315567018,287.4070826371511L170.64500635528563,257.8789577086767L171.90283195495604,275.10369725028676L172.88114075469971,299.7104680240154L177.21365115356446,272.6430201729139L179.10038955307004,275.10369725028676L180.21845675277712,280.0250514050325L180.70761115264892,272.6430201729139L180.7774903526306,260.33963478604954L183.08350395202638,267.72166601816815L184.06181275177005,287.4070826371511L184.62084635162353,270.182343095541L184.97024235153197,252.95760355393094L185.94855115127564,257.8789577086767L186.64734315109254,270.182343095541L189.65214875030514,248.0362493991852L190.21118235015868,265.2609889407953L190.77021595001221,257.8789577086767L192.58707514953613,250.4969264765581L193.21598794937137,252.95760355393094L193.49550474929808,243.11489524443948L193.63526314926148,260.33963478604954L194.61357194900515,245.57557232181236L194.75333034896852,240.6542181670666L195.24248474884033,275.10369725028676L195.80151834869386,240.6542181670666L196.22079354858397,252.95760355393094L198.17741114807131,257.8789577086767L205.79424394607543,240.6542181670666L206.98219034576417,235.73286401232087L207.61110314559934,243.11489524443948L207.68098234558107,243.11489524443948L208.1002575454712,225.8901557028294L208.51953274536132,218.50812447071078L209.77735834503176,252.95760355393094L209.9869959449768,230.81150985757515L210.615908744812,243.11489524443948L214.0399895439148,235.73286401232087L214.24962714385984,238.19354108969375L214.66890234374998,235.73286401232087L215.08817754364014,245.57557232181236L216.13636554336549,228.35083278020227L216.55564074325562,230.81150985757515L216.90503674316406,248.0362493991852L220.5387551422119,250.4969264765581L220.88815114212036,228.35083278020227L220.95803034210203,245.57557232181236L222.21585594177247,218.50812447071078L223.1242855415344,233.272186934948L226.6881247406006,238.19354108969375L227.8760711402893,238.19354108969375L229.2736551399231,225.8901557028294L231.71942713928223,245.57557232181236L231.92906473922727,240.6542181670666L232.90737353897094,255.4182806313038L233.1868903388977,245.57557232181236L236.5410919380188,211.12609323859218L237.03024633789062,218.50812447071078L238.56758873748777,186.5193224648635L239.40613913726807,208.66541616121933L240.10493113708498,208.66541616121933L242.20130713653566,235.73286401232087L242.96997833633424,188.97999954223636L243.52901193618771,201.28338492910072L243.9482871360779,206.20473908384645L246.18442153549194,213.58677031596505L248.21091833496095,213.58677031596505L249.32898553466796,223.42947862545654L250.447052734375,196.36203077435496L250.72656953430177,206.20473908384645L251.91451593399046,216.04744739333793L254.3602879333496,188.97999954223636L257.2952143325806,206.20473908384645L257.9241271324158,193.9013536969821L258.3434023323059,188.97999954223636L258.69279833221435,223.42947862545654L259.1819527320862,213.58677031596505L259.8108655319214,196.36203077435496L260.78917433166504,196.36203077435496L260.92893273162844,198.82270785172784L261.1385703315735,196.36203077435496L261.7674831314087,233.272186934948L264.21325513076783,186.5193224648635L267.35781912994383,193.9013536969821L268.61564472961425,179.1372912327449L269.2445575294494,149.60916630427047L270.15298712921145,179.1372912327449L270.3626247291565,159.45187461376193L270.92165832901003,188.97999954223636L273.7168263282776,184.05864538749063L274.9047727279663,196.36203077435496L275.6035647277832,179.1372912327449L275.8132023277283,188.97999954223636L277.2107863273621,166.83390584588054L278.3288535270691,188.97999954223636L279.5866791267395,164.3732287685077L280.4252295265198,171.7552600006263L282.03245112609864,176.67661415537202L284.61798152542116,181.59796831011775L284.8276191253662,174.21593707799914L284.8974983253479,166.83390584588054L285.4565319252014,169.29458292325342L285.73604872512817,176.67661415537202L286.225203125,152.06984338164332L289.92880072402954,171.7552600006263L290.4179551239014,152.06984338164332L291.04686792373656,164.3732287685077L292.58421032333376,166.83390584588054L292.8637271232605,152.06984338164332L293.42276072311404,161.9125516911348L293.9817943229675,164.3732287685077L294.26131112289426,154.5305204590162L295.65889512252807,125.00239553054178L296.0082911224365,184.05864538749063L296.0781703224182,184.05864538749063L296.4275663223267,144.68781214952472L297.475754322052,152.06984338164332L297.82515032196045,142.22713507215187L299.15285512161256,174.21593707799914L300.2709223213196,156.99119753638908L300.9697143211365,149.60916630427047L301.8082647209167,159.45187461376193L303.62512392044067,152.06984338164332L304.2540367202759,166.83390584588054L306.69980871963503,122.5417184531689L306.7696879196167,137.3057809174061L306.90944631958007,134.84510384003326L309.9841311187744,115.15968722105032L310.54316471862796,129.9237496852875L311.17207751846314,129.9237496852875L311.31183591842654,127.46307260791465L311.661231918335,122.5417184531689L313.4082119178772,137.3057809174061L313.47809111785887,134.84510384003326L314.1768831176758,129.9237496852875L314.31664151763914,120.08104137579608L314.6660375175476,142.22713507215187L315.64434631729125,120.08104137579608L316.0636215171814,122.5417184531689L316.6925343170166,112.69901014367747L317.74072231674194,105.31697891155886L318.1599975166321,154.5305204590162L321.8635951156616,105.31697891155886L323.0515415153503,88.0922393699488L327.3840519142151,102.85630183418596L327.73344791412353,142.22713507215187L328.6418775138855,105.31697891155886L331.22740791320797,122.5417184531689L332.20571671295164,117.62036429842317L334.65148871231077,117.62036429842317L340.45146231079104,93.0135935246945L341.7092879104614,102.85630183418596L342.12856311035154,122.5417184531689L343.8056639099121,93.0135935246945L347.0899863090515,100.3956247568131L347.649019908905,80.7102081378302L350.16467110824584,93.0135935246945L351.49237590789795,85.6315622925759L352.0514095077515,102.85630183418596L352.2610471076965,90.55291644732165L354.21766470718387,93.0135935246945L356.31404070663456,102.85630183418596L360.2272759056091,95.47427060206735L360.64655110549927,80.7102081378302L361.76461830520634,90.55291644732165L363.0224439048767,85.6315622925759L363.09232310485834,73.32817690571159L365.4682159042359,95.47427060206735L366.16700790405275,80.7102081378302L366.3766455039978,100.3956247568131L366.4465247039795,63.48546859622007L366.58628310394283,83.17088521520304L366.6561623039246,70.86749982833868L368.4031423034668,93.0135935246945L370.7091559028625,95.47427060206735L373.5043239021301,88.0922393699488L375.67057910156245,78.24953106045729L377.5573175010681,78.24953106045729L377.90671350097654,85.6315622925759L379.44405590057374,68.40682275096583L380.77176070022585,80.7102081378302L381.81994869995117,68.40682275096583L382.93801589965824,88.0922393699488L384.96451269912717,85.6315622925759L385.17415029907227,68.40682275096583L386.92113029861446,83.17088521520304L389.9259358978272,65.94614567359298L391.323519897461,68.40682275096583L392.58134549713134,63.48546859622007L392.7211038970948,68.40682275096583L392.86086229705813,80.7102081378302L393.2801374969482,88.0922393699488L395.23675509643556,70.86749982833868L396.2150638961792,83.17088521520304L400.1282990951538,58.56411444147432L400.40781589508055,80.7102081378302L401.1764870948792,75.78885398308444L404.810205493927,70.86749982833868L405.15960149383545,75.78885398308444L406.2776686935425,75.78885398308444L406.6270646934509,68.40682275096583L406.76682309341425,58.56411444147432L407.4656150932312,78.24953106045729L409.77162869262696,56.10343736410141L410.61017909240724,78.24953106045729L414.2438974914551,75.78885398308444L415.01256869125365,65.94614567359298L416.2005150909424,88.0922393699488L418.1571326904297,70.86749982833868L420.81254228973387,73.32817690571159L421.58121348953244,58.56411444147432L421.79085108947754,78.24953106045729L425.7739654884338,75.78885398308444L426.1233614883423,65.94614567359298L426.8920326881409,70.86749982833868L431.9932142868042,90.55291644732165L432.76188548660275,68.40682275096583L432.83176468658445,63.48546859622007L432.9715230865479,73.32817690571159L433.3209190864563,75.78885398308444L433.390798286438,56.10343736410141L435.13777828598023,70.86749982833868L435.48717428588867,80.7102081378302L435.69681188583377,56.10343736410141L436.25584548568725,80.7102081378302L437.653429485321,65.94614567359298L437.86306708526615,65.94614567359298L437.93294628524785,70.86749982833868L438.9811342849731,70.86749982833868L440.51847668457026,83.17088521520304L441.4269062843323,65.94614567359298L441.5666646842957,70.86749982833868L445.0606246833801,58.56411444147432L446.7377254829407,75.78885398308444L447.2268798828125,61.02479151884717L447.6461550827026,61.02479151884717L449.3232558822632,58.56411444147432L449.53289348220824,63.48546859622007L453.6557662811279,80.7102081378302L454.8437126808167,70.86749982833868L456.31117588043213,78.24953106045729L456.52081348037717,56.10343736410141L459.6653774795533,61.02479151884717L459.8750150794983,63.48546859622007L460.9930822792053,53.64276028672856L463.15933747863767,63.48546859622007L465.11595507812495,63.48546859622007L465.6749886779785,61.02479151884717L465.95450547790523,78.24953106045729L466.51353907775876,80.7102081378302L469.0990694770813,61.02479151884717L469.4484654769897,56.10343736410141L470.5665326766968,68.40682275096583L471.68459987640387,56.10343736410141L472.2436334762573,63.48546859622007L472.8725462760925,65.94614567359298L474.2701302757263,61.02479151884717L474.340009475708,58.56411444147432L475.1785598754883,70.86749982833868L475.3183182754517,51.18208320935571L477.9737278747559,56.10343736410141L478.81227827453614,63.48546859622007L480.13998307418825,58.56411444147432L481.7472046737671,63.48546859622007L483.1447886734009,65.94614567359298L486.498990272522,65.94614567359298L487.12790307235724,65.94614567359298L487.3375406723023,65.94614567359298L491.2507758712768,58.56411444147432L492.6483598709106,73.32817690571159L492.78811827087407,51.18208320935571L492.85799747085576,65.94614567359298L496.56159506988524,70.86749982833868L497.95917906951905,78.24953106045729L498.5182126693726,61.02479151884717L501.8724142684936,51.18208320935571L503.13023986816404,51.18208320935571L503.6892734680176,61.02479151884717L505.85552866744996,68.40682275096583L509.3494886665344,63.48546859622007L512.144656665802,61.02479151884717L513.2627238655091,51.18208320935571L514.2410326652526,56.10343736410141L515.7084958648682,63.48546859622007L518.5036638641358,68.40682275096583L520.0410062637329,58.56411444147432L520.3904022636414,73.32817690571159L523.7446038627625,53.64276028672856L525.1421878623962,53.64276028672856L525.2819462623596,73.32817690571159L527.5180806617736,75.78885398308444L529.1951814613342,61.02479151884717L530.0337318611145,58.56411444147432L530.1734902610779,63.48546859622007L530.592765460968,68.40682275096583L533.1782958602905,51.18208320935571L535.1349134597779,53.64276028672856L535.2746718597413,68.40682275096583L535.554188659668,61.02479151884717L536.6023766593934,63.48546859622007L539.4674238586426,58.56411444147432L539.6770614585877,61.02479151884717L543.3806590576172,58.56411444147432L545.5469142570495,58.56411444147432L545.6167934570312,68.40682275096583L546.80473985672,63.48546859622007L547.0143774566651,53.64276028672856L549.3902702560425,58.56411444147432L549.5300286560058,61.02479151884717L550.0191830558776,38.87869782249135L552.5348342552185,61.02479151884717L554.002297454834,58.56411444147432L555.6793982543945,56.10343736410141L556.028794254303,75.78885398308444L556.4480694541932,61.02479151884717L558.3348078536987,56.10343736410141L559.7323918533325,58.56411444147432L560.0817878532409,48.7214061319828L561.1299758529664,48.7214061319828L561.4793718528748,73.32817690571159L564.4841774520874,61.02479151884717L566.2311574516297,53.64276028672856L566.370915851593,58.56411444147432L567.4889830513001,68.40682275096583L568.0480166511535,46.26072905460995L568.187775051117,61.02479151884717L571.6817350502015,56.10343736410141L573.0094398498535,56.10343736410141L573.7781110496521,73.32817690571159L573.9178694496155,53.64276028672856L574.3371446495056,56.10343736410141L575.2455742492676,61.02479151884717L576.503399848938,58.56411444147432L579.2286886482239,53.64276028672856L580.8359102478028,63.48546859622007L581.1853062477112,56.10343736410141L582.8624070472717,51.18208320935571L583.6310782470704,56.10343736410141L584.3997494468689,65.94614567359298L584.8889038467407,65.94614567359298L585.3081790466308,63.48546859622007L586.9852798461914,68.40682275096583L591.1081526451111,51.18208320935571L593.6238038444519,43.8000519772371L593.6936830444336,56.10343736410141L593.9731998443604,48.7214061319828L595.3707838439941,46.26072905460995L595.4406630439759,53.64276028672856L595.5105422439575,63.48546859622007L596.069575843811,51.18208320935571L599.1442606430054,56.10343736410141L599.6334150428772,48.7214061319828L599.8430526428223,56.10343736410141L601.1707574424744,51.18208320935571L604.9442342414856,56.10343736410141L605.5731470413208,61.02479151884717L605.7129054412842,53.64276028672856L605.9924222412109,63.48546859622007L606.4116974411011,70.86749982833868L606.6213350410461,48.7214061319828L607.110489440918,56.10343736410141L607.6695230407715,58.56411444147432L607.8791606407166,51.18208320935571L608.7177110404969,68.40682275096583L610.6044494400024,65.94614567359298L610.8839662399292,65.94614567359298L611.6526374397278,61.02479151884717L612.4213086395264,68.40682275096583L617.1730942382812,53.64276028672856L618.1514030380249,48.7214061319828L618.7104366378784,53.64276028672856L619.6887454376221,58.56411444147432L619.7586246376038,46.26072905460995L621.5754838371276,61.02479151884717L624.3007726364135,43.8000519772371L626.3272694358826,58.56411444147432L626.5369070358277,61.02479151884717L628.3537662353516,58.56411444147432L629.611591835022,51.18208320935571L629.8911086349488,51.18208320935571L631.6380886344909,56.10343736410141L635.2718070335388,51.18208320935571L636.3199950332641,63.48546859622007L636.8790286331176,58.56411444147432L636.9489078330994,46.26072905460995L638.4862502326965,51.18208320935571L639.7440758323669,75.78885398308444L642.5392438316345,53.64276028672856L644.00670703125,61.02479151884717L646.1729622306824,70.86749982833868L649.8765598297119,53.64276028672856L650.6452310295106,63.48546859622007L651.9030566291809,58.56411444147432L652.6018486289978,58.56411444147432L652.6717278289796,43.8000519772371L653.9994326286316,53.64276028672856L655.6066542282105,63.48546859622007L656.9343590278626,58.56411444147432L659.0307350273133,65.94614567359298L659.6596478271484,48.7214061319828L659.8692854270935,58.56411444147432L660.3584398269653,58.56411444147432L661.0572318267822,46.26072905460995L661.2668694267273,38.87869782249135L661.6162654266358,56.10343736410141L662.3150574264527,43.8000519772371L664.6210710258483,58.56411444147432L665.9487758255004,48.7214061319828L667.1367222251893,51.18208320935571L671.4692326240539,61.02479151884717L673.9150046234131,41.339374899864254L675.1029510231018,51.18208320935571L675.8017430229187,51.18208320935571L676.1511390228271,58.56411444147432L676.9198102226258,58.56411444147432L677.339085422516,53.64276028672856L677.8282398223877,61.02479151884717L679.0860654220581,51.18208320935571L679.4354614219666,58.56411444147432L679.784857421875,48.7214061319828L681.0426830215454,61.02479151884717L681.811354221344,53.64276028672856L682.020991821289,48.7214061319828L683.4185758209228,48.7214061319828L683.9776094207764,51.18208320935571L684.6764014205933,58.56411444147432L687.1221734199523,46.26072905460995L687.4715694198609,53.64276028672856L691.7342006187439,53.64276028672856L691.8040798187255,48.7214061319828L694.0402142181397,53.64276028672856L697.0450198173523,51.18208320935571L697.6040534172058,38.87869782249135L698.1630870170593,48.7214061319828L698.232966217041,51.18208320935571L700.6088590164184,41.339374899864254L701.3775302162171,58.56411444147432L702.2160806159973,73.32817690571159L703.404027015686,41.339374899864254L707.5967790145874,61.02479151884717L709.2738798141479,51.18208320935571L711.3702558135986,48.7214061319828L711.6497726135253,58.56411444147432L712.6280814132691,61.02479151884717L713.8160278129578,48.7214061319828L714.2353030128479,56.10343736410141L717.1702294120788,43.8000519772371L718.2882966117859,58.56411444147432L719.0569678115844,56.10343736410141L719.6858806114197,43.8000519772371L720.2449142112731,46.26072905460995L721.642498210907,53.64276028672856L721.7822566108703,48.7214061319828L721.9918942108153,56.10343736410141L722.1316526107789,58.56411444147432L722.550927810669,58.56411444147432L723.9485118103028,61.02479151884717L724.1581494102478,56.10343736410141L724.5075454101562,56.10343736410141L725.1364582099915,48.7214061319828L731.4255862083435,51.18208320935571L731.4954654083251,65.94614567359298L731.6352238082885,46.26072905460995L732.6135326080322,53.64276028672856L732.893049407959,56.10343736410141L733.5219622077942,73.32817690571159L733.591841407776,56.10343736410141L733.9412374076843,43.8000519772371L734.2906334075927,51.18208320935571L735.3388214073182,56.10343736410141L738.3436270065307,53.64276028672856L738.8327814064025,51.18208320935571L739.1821774063111,51.18208320935571L740.1604862060547,51.18208320935571L740.7893990058899,56.10343736410141L743.0954126052856,51.18208320935571L743.1652918052672,61.02479151884717L743.7942046051025,56.10343736410141L746.4496142044068,58.56411444147432L747.0086478042602,51.18208320935571L747.0785270042419,46.26072905460995L747.3580438041686,51.18208320935571L749.5941782035827,46.26072905460995L752.878500602722,51.18208320935571L753.158017402649,63.48546859622007L754.7652390022279,48.7214061319828L756.0230646018982,51.18208320935571L756.2327022018433,61.02479151884717L757.7001654014588,36.4180207451185L758.4688366012573,46.26072905460995L760.145937400818,43.8000519772371L760.6350918006897,48.7214061319828L761.8230382003785,58.56411444147432L761.9627966003418,53.64276028672856L762.1724342002868,48.7214061319828L763.6398973999023,46.26072905460995L763.7796557998657,48.7214061319828L764.1290517997741,53.64276028672856L764.8977229995728,48.7214061319828L765.7362733993531,46.26072905460995L766.9242197990417,53.64276028672856L768.1820453987121,61.02479151884717L768.6013205986023,41.339374899864254L769.3001125984192,58.56411444147432L770.6278173980713,51.18208320935571L772.5145557975768,61.02479151884717L773.0735893974305,53.64276028672856L774.5410525970459,56.10343736410141L776.0085157966614,61.02479151884717L777.2663413963319,56.10343736410141L779.5024757957458,48.7214061319828L779.9916301956177,51.18208320935571L783.7651069946288,46.26072905460995L784.4638989944458,56.10343736410141L784.9530533943176,43.8000519772371L786.8397917938231,61.02479151884717L788.3072549934388,51.18208320935571L789.0060469932556,53.64276028672856L790.1241141929627,61.02479151884717L790.7530269927978,65.94614567359298L792.9891613922119,46.26072905460995L794.107228591919,56.10343736410141L794.4566245918274,53.64276028672856L797.46143019104,51.18208320935571L797.671067790985,56.10343736410141L799.0686517906189,63.48546859622007L799.5578061904909,53.64276028672856L801.3746653900147,46.26072905460995L801.8638197898864,63.48546859622007L806.2662093887328,61.02479151884717L806.8951221885682,63.48546859622007L807.3842765884399,53.64276028672856L808.0830685882569,43.8000519772371L808.2927061882019,51.18208320935571L809.8300485877991,38.87869782249135L810.5987197875976,48.7214061319828L811.3673909873962,46.26072905460995L812.4854581871033,48.7214061319828L814.1625589866638,58.56411444147432L814.5818341865539,56.10343736410141L816.1890557861327,61.02479151884717L816.8878477859497,58.56411444147432L817.4468813858032,53.64276028672856L821.7095125846862,41.339374899864254L822.3384253845215,68.40682275096583L822.9673381843567,56.10343736410141L825.4131101837158,51.18208320935571L827.3697277832031,38.87869782249135L827.5793653831481,48.7214061319828L830.3745333824157,43.8000519772371L832.0516341819764,48.7214061319828L836.5937821807862,51.18208320935571L839.5287085800171,46.26072905460995L842.0443597793579,48.7214061319828L842.3937557792664,53.64276028672856L842.6033933792114,63.48546859622007L843.5817021789551,43.8000519772371L844.4202525787352,51.18208320935571L846.0274741783143,51.18208320935571L846.4467493782043,46.26072905460995L847.4949373779298,61.02479151884717L847.9142125778199,48.7214061319828L848.6130045776366,51.18208320935571L850.2901053771974,36.4180207451185L851.4780517768859,56.10343736410141L853.015394176483,53.64276028672856L855.6708037757872,51.18208320935571L856.439474975586,51.18208320935571L857.8370589752197,65.94614567359298L858.3262133750915,51.18208320935571L858.6756093749999,41.339374899864254L861.610535774231,48.7214061319828L864.1261869735717,46.26072905460995L866.0828045730591,51.18208320935571L866.2225629730225,43.8000519772371L866.2924421730041,56.10343736410141L866.4322005729675,48.7214061319828L867.480388572693,46.26072905460995L867.899663772583,46.26072905460995L868.2490597724914,63.48546859622007L870.2755565719605,58.56411444147432L871.253865371704,41.339374899864254L872.0225365715027,41.339374899864254L872.7213285713195,53.64276028672856L873.0008453712464,51.18208320935571L873.0707245712281,58.56411444147432L875.0273421707153,41.339374899864254L875.6562549705507,53.64276028672856L877.2634765701295,53.64276028672856L877.3333557701111,48.7214061319828L878.1719061698913,48.7214061319828L880.3381613693238,41.339374899864254L880.9670741691589,53.64276028672856L882.1550205688476,43.8000519772371L882.504416568756,46.26072905460995L883.1333293685914,36.4180207451185L883.6923629684447,61.02479151884717L884.2513965682984,51.18208320935571L885.4393429679869,38.87869782249135L887.5357189674378,51.18208320935571L888.2345109672546,43.8000519772371L890.8200413665771,51.18208320935571L891.4489541664124,43.8000519772371L891.5188333663941,48.7214061319828L891.9381085662842,63.48546859622007L893.0561757659913,43.8000519772371L893.545330165863,43.8000519772371L895.5019477653505,46.26072905460995L895.5718269653321,53.64276028672856L896.2007397651672,48.7214061319828L896.5501357650757,51.18208320935571L897.3188069648743,41.339374899864254L897.9477197647094,48.7214061319828L898.9260285644531,51.18208320935571L901.5814381637573,53.64276028672856L901.7910757637023,43.8000519772371L902.4199885635377,48.7214061319828L904.1669685630799,46.26072905460995L904.4464853630066,56.10343736410141L905.0753981628417,41.339374899864254L906.0537069625855,41.339374899864254L906.4729821624755,41.339374899864254L906.6127405624391,48.7214061319828L908.9886333618164,51.18208320935571L909.4079085617064,51.18208320935571L909.8271837615968,36.4180207451185L909.96694216156,53.64276028672856L910.7356133613586,61.02479151884717L911.0850093612671,51.18208320935571L912.0633181610107,41.339374899864254L912.692230960846,61.02479151884717L913.8102981605531,41.339374899864254L915.5572781600953,51.18208320935571L916.8849829597474,61.02479151884717L917.5138957595825,48.7214061319828L918.7717213592529,43.8000519772371L920.6584597587585,46.26072905460995L922.2656813583375,51.18208320935571L922.4054397583009,51.18208320935571L922.4753189582825,41.339374899864254L926.0391581573485,41.339374899864254L926.5981917572022,56.10343736410141L926.8078293571473,56.10343736410141L927.4367421569824,56.10343736410141L930.0921517562866,53.64276028672856L932.258406955719,51.18208320935571L933.6559909553529,46.26072905460995L934.983695755005,51.18208320935571L937.1499509544373,41.339374899864254L937.7089845542909,51.18208320935571L937.8487429542542,36.4180207451185L940.2246357536316,46.26072905460995L941.4125821533203,46.26072905460995L942.810166152954,51.18208320935571L944.7667837524415,51.18208320935571L944.9764213523865,38.87869782249135L945.0463005523682,48.7214061319828L945.4655757522582,46.26072905460995L945.6053341522216,43.8000519772371L946.7932805519104,46.26072905460995L947.3523141517638,53.64276028672856L947.9812269515992,41.339374899864254L949.0294149513245,41.339374899864254L950.1474821510315,53.64276028672856L952.8727709503173,51.18208320935571L953.7113213500977,48.7214061319828L953.851079750061,61.02479151884717L954.549871749878,53.64276028672856L955.3185429496765,48.7214061319828L956.2968517494202,46.26072905460995L956.4366101493836,63.48546859622007L957.6245565490723,46.26072905460995L958.9522613487244,46.26072905460995L961.4679125480651,51.18208320935571L963.3546509475708,51.18208320935571L963.7739261474609,65.94614567359298L964.4028389472962,48.7214061319828L966.4992149467469,46.26072905460995L968.1064365463257,51.18208320935571L968.1763157463073,36.4180207451185L969.4341413459778,41.339374899864254L971.390758945465,43.8000519772371L971.7401549453735,56.10343736410141L973.6268933448791,43.8000519772371L974.5353229446412,51.18208320935571L974.6750813446046,51.18208320935571L974.7449605445862,53.64276028672856L976.14254454422,41.339374899864254L976.4919405441284,53.64276028672856L977.4702493438721,41.339374899864254L978.169041343689,48.7214061319828L978.5184373435975,48.7214061319828L979.0075917434692,53.64276028672856L980.3352965431213,53.64276028672856L981.1738469429015,56.10343736410141L983.6196189422607,41.339374899864254L984.248531742096,51.18208320935571L987.9521293411254,43.8000519772371L989.0003173408509,51.18208320935571L989.7689885406495,51.18208320935571L990.0485053405762,51.18208320935571L991.1665725402833,43.8000519772371L992.0750021400452,43.8000519772371L993.4725861396789,48.7214061319828L994.1014989395143,58.56411444147432L994.6605325393676,51.18208320935571L997.1761837387086,43.8000519772371L998.5737677383423,48.7214061319828L998.7834053382874,46.26072905460995L999.9014725379944,38.87869782249135L1001.0195397377015,56.10343736410141L1005.9809629364014,56.10343736410141L1006.6098757362365,41.339374899864254L1008.7761309356689,53.64276028672856L1010.103835735321,48.7214061319828L1010.313473335266,53.64276028672856L1011.8508157348632,56.10343736410141L1016.392963733673,38.87869782249135L1016.8122389335633,48.7214061319828L1016.9519973335266,38.87869782249135L1018.4194605331421,46.26072905460995L1019.9568029327393,36.4180207451185L1021.9832997322081,46.26072905460995L1025.197742931366,41.339374899864254L1027.1543605308532,38.87869782249135L1031.277233329773,65.94614567359298L1032.39530052948,46.26072905460995L1034.5615557289123,41.339374899864254L1035.1205893287658,46.26072905460995L1036.5880525283815,48.7214061319828L1038.3350325279237,43.8000519772371L1038.684428527832,51.18208320935571L1039.592858127594,46.26072905460995L1040.501287727356,41.339374899864254L1040.920562927246,41.339374899864254L1043.855489326477,48.7214061319828L1043.9253685264587,58.56411444147432L1044.274764526367,41.339374899864254L1045.3229525260924,43.8000519772371L1049.3759461250306,58.56411444147432L1050.5638925247192,46.26072905460995L1052.450630924225,53.64276028672856L1052.5205101242066,48.7214061319828L1053.07954372406,43.8000519772371L1053.9180941238403,46.26072905460995L1054.7566445236207,51.18208320935571L1055.8048325233458,48.7214061319828L1056.0843493232728,51.18208320935571L1057.2722957229614,36.4180207451185L1058.5301213226319,41.339374899864254L1059.7879469223021,48.7214061319828L1060.8361349220277,61.02479151884717L1061.5349269218443,46.26072905460995L1061.7445645217897,51.18208320935571L1062.5831149215699,51.18208320935571L1062.6529941215515,46.26072905460995L1062.9325109214783,48.7214061319828L1064.8891285209656,46.26072905460995L1066.7059877204895,43.8000519772371L1069.0120013198853,36.4180207451185L1070.0601893196106,38.87869782249135L1072.5758405189513,41.339374899864254L1072.92523651886,56.10343736410141L1076.279438117981,48.7214061319828L1076.5589549179076,56.10343736410141L1077.9565389175416,43.8000519772371L1081.3806197166443,41.339374899864254L1083.1974789161682,51.18208320935571L1083.4071165161133,61.02479151884717L1086.3420429153443,51.18208320935571L1087.4601101150513,43.8000519772371L1089.9058821144104,43.8000519772371L1090.9540701141357,41.339374899864254L1091.5131037139893,46.26072905460995L1091.9323789138793,38.87869782249135L1094.2383925132751,38.87869782249135L1095.426338912964,46.26072905460995L1095.6359765129089,41.339374899864254L1095.845614112854,41.339374899864254L1096.7540437126158,46.26072905460995L1098.6407821121215,43.8000519772371L1099.898607711792,53.64276028672856L1100.3877621116637,51.18208320935571L1100.8769165115357,48.7214061319828L1102.4142589111327,43.8000519772371L1103.8817221107483,43.8000519772371L1104.7901517105101,46.26072905460995L1107.2359237098694,43.8000519772371L1108.8431453094483,53.64276028672856L1109.0527829093933,48.7214061319828L1109.9612125091553,48.7214061319828L1110.240729309082,43.8000519772371L1110.6600045089722,41.339374899864254L1113.6648101081848,48.7214061319828L1113.7346893081665,36.4180207451185L1115.0623941078186,41.339374899864254L1115.2720317077637,41.339374899864254L1115.831065307617,41.339374899864254L1115.900944507599,53.64276028672856L1115.9708237075806,61.02479151884717L1116.3900989074707,58.56411444147432L1117.7876829071045,48.7214061319828L1117.927441307068,53.64276028672856L1119.1852669067382,53.64276028672856L1122.6792269058228,48.7214061319828L1123.6575357055665,43.8000519772371L1124.0768109054566,43.8000519772371L1126.452703704834,63.48546859622007L1129.3177509040834,46.26072905460995L1131.2743685035705,53.64276028672856L1133.1611069030762,43.8000519772371L1133.5105029029846,51.18208320935571L1133.9297781028747,48.7214061319828L1135.5369997024536,43.8000519772371L1137.2839797019958,41.339374899864254L1138.1225301017762,38.87869782249135L1138.1924093017578,51.18208320935571L1138.611684501648,46.26072905460995L1139.2405973014831,56.10343736410141L1140.4285437011717,43.8000519772371L1141.2670941009521,41.339374899864254L1141.6863693008422,36.4180207451185L1143.083953300476,51.18208320935571L1143.363470100403,48.7214061319828L1145.0405708999633,56.10343736410141L1145.1803292999268,46.26072905460995L1145.8092420997618,46.26072905460995L1149.3032020988464,43.8000519772371L1150.980302898407,43.8000519772371L1152.587524497986,63.48546859622007L1155.1031756973266,36.4180207451185L1156.7802764968872,43.8000519772371L1156.9200348968507,46.26072905460995L1156.9899140968323,38.87869782249135L1159.086290096283,36.4180207451185L1160.8332700958251,46.26072905460995L1161.1826660957336,48.7214061319828L1162.2308540954589,43.8000519772371L1162.6501292953492,41.339374899864254L1164.7465052947998,53.64276028672856L1164.8163844947815,43.8000519772371L1165.375418094635,53.64276028672856L1165.6549348945616,48.7214061319828L1166.074210094452,58.56411444147432L1167.1922772941589,56.10343736410141L1170.1970828933715,46.26072905460995L1171.035633293152,46.26072905460995L1171.8043044929505,48.7214061319828L1172.5030964927673,46.26072905460995L1172.572975692749,56.10343736410141L1172.8524924926758,43.8000519772371L1173.1320092926026,48.7214061319828L1173.4115260925294,51.18208320935571L1174.599472492218,43.8000519772371L1175.0187476921083,65.94614567359298L1175.2982644920348,38.87869782249135L1175.4380228919983,41.339374899864254L1177.1850028915405,53.64276028672856L1178.5127076911926,46.26072905460995L1179.0018620910644,51.18208320935571L1179.0717412910462,48.7214061319828L1180.1898084907532,53.64276028672856L1180.3994460906983,41.339374899864254L1182.6355804901123,68.40682275096583L1182.705459690094,48.7214061319828L1182.7753388900758,43.8000519772371L1184.4524396896363,48.7214061319828L1185.4307484893798,53.64276028672856L1188.994587688446,38.87869782249135L1189.8331380882264,43.8000519772371L1194.2355276870728,43.8000519772371L1197.1704540863038,51.18208320935571L1197.4499708862304,43.8000519772371L1198.8475548858642,41.339374899864254L1200.5246556854247,38.87869782249135L1200.6644140853882,46.26072905460995L1201.8523604850768,43.8000519772371L1204.4378908843994,46.26072905460995L1205.2764412841798,43.8000519772371L1206.53426688385,53.64276028672856L1206.8836628837587,46.26072905460995L1207.023421283722,56.10343736410141L1207.7222132835388,48.7214061319828L1208.9800388832093,38.87869782249135L1210.0981060829163,36.4180207451185L1210.587260482788,36.4180207451185L1211.7752068824768,48.7214061319828L1212.194482082367,56.10343736410141L1212.6836364822389,68.40682275096583L1215.967958881378,46.26072905460995L1216.3173548812865,46.26072905460995L1217.4354220809937,38.87869782249135L1217.8546972808838,43.8000519772371L1218.5534892807007,48.7214061319828L1219.8113148803711,48.7214061319828L1220.3004692802429,48.7214061319828L1220.99926128006,46.26072905460995L1221.0691404800416,41.339374899864254L1221.1390196800232,58.56411444147432L1222.047449279785,48.7214061319828L1223.3751540794372,48.7214061319828L1224.772738079071,48.7214061319828L1225.5414092788697,43.8000519772371L1228.825731678009,36.4180207451185L1229.6642820777893,43.8000519772371L1230.4329532775878,46.26072905460995L1232.669087677002,48.7214061319828L1234.905222076416,43.8000519772371L1237.0714772758483,53.64276028672856L1239.657007675171,41.339374899864254L1241.3341084747315,46.26072905460995L1241.9630212745667,53.64276028672856L1242.3822964744568,38.87869782249135L1243.430484474182,38.87869782249135L1244.6184308738707,51.18208320935571L1245.5967396736146,46.26072905460995L1245.8063772735595,41.339374899864254L1247.1340820732116,46.26072905460995L1248.4617868728637,46.26072905460995L1254.052122871399,46.26072905460995L1256.3581364707948,41.339374899864254L1256.9171700706481,53.64276028672856L1257.3364452705382,41.339374899864254L1259.013546070099,46.26072905460995L1259.0834252700806,46.26072905460995L1259.5725796699523,53.64276028672856L1261.7388348693848,46.26072905460995L1263.6255732688903,43.8000519772371L1264.4641236686707,43.8000519772371L1265.6520700683593,48.7214061319828L1265.931586868286,43.8000519772371L1270.0544596672057,41.339374899864254L1270.9628892669677,43.8000519772371L1271.6616812667846,43.8000519772371L1271.9411980667114,43.8000519772371L1272.3604732666015,38.87869782249135L1273.6881780662536,61.02479151884717L1275.2255204658509,36.4180207451185L1276.133950065613,41.339374899864254L1280.2568228645325,38.87869782249135L1281.7941652641296,43.8000519772371L1282.0736820640564,61.02479151884717L1282.2134404640199,41.339374899864254L1282.2833196640015,56.10343736410141L1282.9821116638184,48.7214061319828L1284.3796956634521,46.26072905460995L1285.078487663269,46.26072905460995L1285.986917263031,43.8000519772371L1286.196554862976,48.7214061319828L1288.5724476623536,46.26072905460995L1289.2013604621886,46.26072905460995L1292.276045261383,43.8000519772371L1293.1145956611633,48.7214061319828L1296.8880724601747,56.10343736410141L1298.7049316596986,38.87869782249135L1299.054327659607,38.87869782249135L1300.4519116592407,43.8000519772371L1304.015750858307,61.02479151884717L1304.2952676582336,43.8000519772371L1306.5314020576477,38.87869782249135L1309.9554828567505,38.87869782249135L1311.3530668563842,51.18208320935571L1313.5892012557983,41.339374899864254L1314.2879932556152,51.18208320935571L1314.3578724555969,48.7214061319828L1316.104852455139,48.7214061319828L1316.4542484550475,43.8000519772371L1316.7337652549745,48.7214061319828L1317.712074054718,43.8000519772371L1320.647000453949,41.339374899864254L1321.6951884536743,51.18208320935571L1322.3939804534912,43.8000519772371L1327.634920452118,51.18208320935571L1330.2204508514403,31.49666659037274L1330.7096052513123,36.4180207451185L1332.3168268508912,46.26072905460995L1334.4830820503234,33.95734366774565L1336.8589748497009,46.26072905460995L1336.9288540496825,36.4180207451185L1338.4661964492798,41.339374899864254L1338.8155924491882,36.4180207451185" fill="none"></path></g></g></g></g></g></g><g transform="translate(51, 377)" clip-path="url(#clip_1)"><clipPath id="clip_1"><rect width="1397" height="22"></rect></clipPath><g><g><line x1="0" y1="0" x2="0" y2="5" style="visibility: inherit;" fill="rgb(0, 0, 0)" stroke="rgb(204, 204, 204)" stroke-width="1px"></line><line x1="139.7583999633789" y1="0" x2="139.7583999633789" y2="5" style="visibility: inherit;" fill="rgb(0, 0, 0)" stroke="rgb(204, 204, 204)" stroke-width="1px"></line><line x1="279.5167999267578" y1="0" x2="279.5167999267578" y2="5" style="visibility: inherit;" fill="rgb(0, 0, 0)" stroke="rgb(204, 204, 204)" stroke-width="1px"></line><line x1="419.2751998901367" y1="0" x2="419.2751998901367" y2="5" style="visibility: inherit;" fill="rgb(0, 0, 0)" stroke="rgb(204, 204, 204)" stroke-width="1px"></line><line x1="559.0335998535156" y1="0" x2="559.0335998535156" y2="5" style="visibility: inherit;" fill="rgb(0, 0, 0)" stroke="rgb(204, 204, 204)" stroke-width="1px"></line><line x1="698.7919998168945" y1="0" x2="698.7919998168945" y2="5" style="visibility: inherit;" fill="rgb(0, 0, 0)" stroke="rgb(204, 204, 204)" stroke-width="1px"></line><line x1="838.5503997802734" y1="0" x2="838.5503997802734" y2="5" style="visibility: inherit;" fill="rgb(0, 0, 0)" stroke="rgb(204, 204, 204)" stroke-width="1px"></line><line x1="978.3087997436522" y1="0" x2="978.3087997436522" y2="5" style="visibility: inherit;" fill="rgb(0, 0, 0)" stroke="rgb(204, 204, 204)" stroke-width="1px"></line><line x1="1118.0671997070312" y1="0" x2="1118.0671997070312" y2="5" style="visibility: inherit;" fill="rgb(0, 0, 0)" stroke="rgb(204, 204, 204)" stroke-width="1px"></line><line x1="1257.8255996704102" y1="0" x2="1257.8255996704102" y2="5" style="visibility: inherit;" fill="rgb(0, 0, 0)" stroke="rgb(204, 204, 204)" stroke-width="1px"></line><line x1="1397.583999633789" y1="0" x2="1397.583999633789" y2="5" style="visibility: inherit;" fill="rgb(0, 0, 0)" stroke="rgb(204, 204, 204)" stroke-width="1px"></line></g><g transform="translate(0, 8)"><text style="text-anchor: middle; visibility: hidden; font-family: &quot;Helvetica Neue&quot;, sans-serif; font-size: 12px; font-weight: 200;" x="0" y="0" dx="0em" dy="0.95em" fill="rgb(50, 49, 63)" stroke="none" stroke-width="1px">-2k</text><text style="text-anchor: middle; visibility: inherit; font-family: &quot;Helvetica Neue&quot;, sans-serif; font-size: 12px; font-weight: 200;" x="139.7583999633789" y="0" dx="0em" dy="0.95em" fill="rgb(50, 49, 63)" stroke="none" stroke-width="1px">0</text><text style="text-anchor: middle; visibility: inherit; font-family: &quot;Helvetica Neue&quot;, sans-serif; font-size: 12px; font-weight: 200;" x="279.5167999267578" y="0" dx="0em" dy="0.95em" fill="rgb(50, 49, 63)" stroke="none" stroke-width="1px">2k</text><text style="text-anchor: middle; visibility: inherit; font-family: &quot;Helvetica Neue&quot;, sans-serif; font-size: 12px; font-weight: 200;" x="419.2751998901367" y="0" dx="0em" dy="0.95em" fill="rgb(50, 49, 63)" stroke="none" stroke-width="1px">4k</text><text style="text-anchor: middle; visibility: inherit; font-family: &quot;Helvetica Neue&quot;, sans-serif; font-size: 12px; font-weight: 200;" x="559.0335998535156" y="0" dx="0em" dy="0.95em" fill="rgb(50, 49, 63)" stroke="none" stroke-width="1px">6k</text><text style="text-anchor: middle; visibility: inherit; font-family: &quot;Helvetica Neue&quot;, sans-serif; font-size: 12px; font-weight: 200;" x="698.7919998168945" y="0" dx="0em" dy="0.95em" fill="rgb(50, 49, 63)" stroke="none" stroke-width="1px">8k</text><text style="text-anchor: middle; visibility: inherit; font-family: &quot;Helvetica Neue&quot;, sans-serif; font-size: 12px; font-weight: 200;" x="838.5503997802734" y="0" dx="0em" dy="0.95em" fill="rgb(50, 49, 63)" stroke="none" stroke-width="1px">10k</text><text style="text-anchor: middle; visibility: inherit; font-family: &quot;Helvetica Neue&quot;, sans-serif; font-size: 12px; font-weight: 200;" x="978.3087997436522" y="0" dx="0em" dy="0.95em" fill="rgb(50, 49, 63)" stroke="none" stroke-width="1px">12k</text><text style="text-anchor: middle; visibility: inherit; font-family: &quot;Helvetica Neue&quot;, sans-serif; font-size: 12px; font-weight: 200;" x="1118.0671997070312" y="0" dx="0em" dy="0.95em" fill="rgb(50, 49, 63)" stroke="none" stroke-width="1px">14k</text><text style="text-anchor: middle; visibility: inherit; font-family: &quot;Helvetica Neue&quot;, sans-serif; font-size: 12px; font-weight: 200;" x="1257.8255996704102" y="0" dx="0em" dy="0.95em" fill="rgb(50, 49, 63)" stroke="none" stroke-width="1px">16k</text><text style="text-anchor: middle; visibility: hidden; font-family: &quot;Helvetica Neue&quot;, sans-serif; font-size: 12px; font-weight: 200;" x="1397.583999633789" y="0" dx="0em" dy="0.95em" fill="rgb(50, 49, 63)" stroke="none" stroke-width="1px">18k</text></g><line x1="0" y1="0" x2="1397.583999633789" y2="0" fill="rgb(0, 0, 0)" stroke="rgb(204, 204, 204)" stroke-width="1px"></line></g></g></g></g></svg>