<svg viewBox="0 0 1449 400" xmlns="http://www.w3.org/2000/svg"><g><g><g><g><g><line x1="51.41600036621094" y1="377.95999908447266" x2="46.41600036621094" y2="377.95999908447266" style="visibility: inherit;" fill="rgb(0, 0, 0)" stroke="rgb(204, 204, 204)" stroke-width="1px"></line><line x1="51.41600036621094" y1="323.96571350097656" x2="46.41600036621094" y2="323.96571350097656" style="visibility: inherit;" fill="rgb(0, 0, 0)" stroke="rgb(204, 204, 204)" stroke-width="1px"></line><line x1="51.41600036621094" y1="269.97142791748047" x2="46.41600036621094" y2="269.97142791748047" style="visibility: inherit;" fill="rgb(0, 0, 0)" stroke="rgb(204, 204, 204)" stroke-width="1px"></line><line x1="51.41600036621094" y1="215.97714233398438" x2="46.41600036621094" y2="215.97714233398438" style="visibility: inherit;" fill="rgb(0, 0, 0)" stroke="rgb(204, 204, 204)" stroke-width="1px"></line><line x1="51.41600036621094" y1="161.98285675048828" x2="46.41600036621094" y2="161.98285675048828" style="visibility: inherit;" fill="rgb(0, 0, 0)" stroke="rgb(204, 204, 204)" stroke-width="1px"></line><line x1="51.41600036621094" y1="107.98857116699219" x2="46.41600036621094" y2="107.98857116699219" style="visibility: inherit;" fill="rgb(0, 0, 0)" stroke="rgb(204, 204, 204)" stroke-width="1px"></line><line x1="51.41600036621094" y1="53.994285583496094" x2="46.41600036621094" y2="53.994285583496094" style="visibility: inherit;" fill="rgb(0, 0, 0)" stroke="rgb(204, 204, 204)" stroke-width="1px"></line><line x1="51.41600036621094" y1="0" x2="46.41600036621094" y2="0" style="visibility: inherit;" fill="rgb(0, 0, 0)" stroke="rgb(204, 204, 204)" stroke-width="1px"></line></g><g transform="translate(41.41600036621094, 0)"><text style="text-anchor: end; visibility: hidden; font-family: &quot;Helvetica Neue&quot;, sans-serif; font-size: 12px; font-weight: 200;" x="0" y="377.95999908447266" dx="0em" dy="0.3em" fill="rgb(50, 49, 63)" stroke="none" stroke-width="1px">-0.5</text><text style="text-anchor: end; visibility: inherit; font-family: &quot;Helvetica Neue&quot;, sans-serif; font-size: 12px; font-weight: 200;" x="0" y="323.96571350097656" dx="0em" dy="0.3em" fill="rgb(50, 49, 63)" stroke="none" stroke-width="1px">0</text><text style="text-anchor: end; visibility: inherit; font-family: &quot;Helvetica Neue&quot;, sans-serif; font-size: 12px; font-weight: 200;" x="0" y="269.97142791748047" dx="0em" dy="0.3em" fill="rgb(50, 49, 63)" stroke="none" stroke-width="1px">0.5</text><text style="text-anchor: end; visibility: inherit; font-family: &quot;Helvetica Neue&quot;, sans-serif; font-size: 12px; font-weight: 200;" x="0" y="215.97714233398438" dx="0em" dy="0.3em" fill="rgb(50, 49, 63)" stroke="none" stroke-width="1px">1</text><text style="text-anchor: end; visibility: inherit; font-family: &quot;Helvetica Neue&quot;, sans-serif; font-size: 12px; font-weight: 200;" x="0" y="161.98285675048828" dx="0em" dy="0.3em" fill="rgb(50, 49, 63)" stroke="none" stroke-width="1px">1.5</text><text style="text-anchor: end; visibility: inherit; font-family: &quot;Helvetica Neue&quot;, sans-serif; font-size: 12px; font-weight: 200;" x="0" y="107.98857116699219" dx="0em" dy="0.3em" fill="rgb(50, 49, 63)" stroke="none" stroke-width="1px">2</text><text style="text-anchor: end; visibility: inherit; font-family: &quot;Helvetica Neue&quot;, sans-serif; font-size: 12px; font-weight: 200;" x="0" y="53.994285583496094" dx="0em" dy="0.3em" fill="rgb(50, 49, 63)" stroke="none" stroke-width="1px">2.5</text><text style="text-anchor: end; visibility: hidden; font-family: &quot;Helvetica Neue&quot;, sans-serif; font-size: 12px; font-weight: 200;" x="0" y="0" dx="0em" dy="0.3em" fill="rgb(50, 49, 63)" stroke="none" stroke-width="1px">3</text></g><line x1="51.41600036621094" y1="0" x2="51.41600036621094" y2="377.95999908447266" fill="rgb(0, 0, 0)" stroke="rgb(204, 204, 204)" stroke-width="1px"></line></g></g><g transform="translate(51, 0)" clip-path="url(#clip_0)"><clipPath id="clip_0"><rect width="1397" height="377"></rect></clipPath><g><g><g><line x1="0" y1="0" x2="0" y2="377.95999908447266" fill="rgb(0, 0, 0)" stroke="rgb(60, 60, 60)" stroke-width="1px" opacity="0.25"></line><line x1="139.7583999633789" y1="0" x2="139.7583999633789" y2="377.95999908447266" fill="rgb(0, 0, 0)" stroke="rgb(60, 60, 60)" stroke-width="1px" opacity="0.25"></line><line x1="279.5167999267578" y1="0" x2="279.5167999267578" y2="377.95999908447266" fill="rgb(0, 0, 0)" stroke="rgb(60, 60, 60)" stroke-width="1px" opacity="0.25"></line><line x1="419.2751998901367" y1="0" x2="419.2751998901367" y2="377.95999908447266" fill="rgb(0, 0, 0)" stroke="rgb(60, 60, 60)" stroke-width="1px" opacity="0.25"></line><line x1="559.0335998535156" y1="0" x2="559.0335998535156" y2="377.95999908447266" fill="rgb(0, 0, 0)" stroke="rgb(60, 60, 60)" stroke-width="1px" opacity="0.25"></line><line x1="698.7919998168945" y1="0" x2="698.7919998168945" y2="377.95999908447266" fill="rgb(0, 0, 0)" stroke="rgb(60, 60, 60)" stroke-width="1px" opacity="0.25"></line><line x1="838.5503997802734" y1="0" x2="838.5503997802734" y2="377.95999908447266" fill="rgb(0, 0, 0)" stroke="rgb(60, 60, 60)" stroke-width="1px" opacity="0.25"></line><line x1="978.3087997436522" y1="0" x2="978.3087997436522" y2="377.95999908447266" fill="rgb(0, 0, 0)" stroke="rgb(60, 60, 60)" stroke-width="1px" opacity="0.25"></line><line x1="1118.0671997070312" y1="0" x2="1118.0671997070312" y2="377.95999908447266" fill="rgb(0, 0, 0)" stroke="rgb(60, 60, 60)" stroke-width="1px" opacity="0.25"></line><line x1="1257.8255996704102" y1="0" x2="1257.8255996704102" y2="377.95999908447266" fill="rgb(0, 0, 0)" stroke="rgb(60, 60, 60)" stroke-width="1px" opacity="0.25"></line><line x1="1397.583999633789" y1="0" x2="1397.583999633789" y2="377.95999908447266" fill="rgb(0, 0, 0)" stroke="rgb(60, 60, 60)" stroke-width="1px" opacity="0.25"></line></g><g><line x1="0" y1="377.95999908447266" x2="1397.583999633789" y2="377.95999908447266" fill="rgb(0, 0, 0)" stroke="rgb(60, 60, 60)" stroke-width="1px" opacity="0.25"></line><line x1="0" y1="323.96571350097656" x2="1397.583999633789" y2="323.96571350097656" fill="rgb(0, 0, 0)" stroke="rgb(60, 60, 60)" stroke-width="1px" opacity="0.25"></line><line x1="0" y1="269.97142791748047" x2="1397.583999633789" y2="269.97142791748047" fill="rgb(0, 0, 0)" stroke="rgb(60, 60, 60)" stroke-width="1px" opacity="0.25"></line><line x1="0" y1="215.97714233398438" x2="1397.583999633789" y2="215.97714233398438" fill="rgb(0, 0, 0)" stroke="rgb(60, 60, 60)" stroke-width="1px" opacity="0.25"></line><line x1="0" y1="161.98285675048828" x2="1397.583999633789" y2="161.98285675048828" fill="rgb(0, 0, 0)" stroke="rgb(60, 60, 60)" stroke-width="1px" opacity="0.25"></line><line x1="0" y1="107.98857116699219" x2="1397.583999633789" y2="107.98857116699219" fill="rgb(0, 0, 0)" stroke="rgb(60, 60, 60)" stroke-width="1px" opacity="0.25"></line><line x1="0" y1="53.994285583496094" x2="1397.583999633789" y2="53.994285583496094" fill="rgb(0, 0, 0)" stroke="rgb(60, 60, 60)" stroke-width="1px" opacity="0.25"></line><line x1="0" y1="0" x2="1397.583999633789" y2="0" fill="rgb(0, 0, 0)" stroke="rgb(60, 60, 60)" stroke-width="1px" opacity="0.25"></line></g></g></g><g><g><line x1="0" y1="323.96571350097656" x2="1397.583999633789" y2="323.96571350097656" fill="rgb(0, 0, 0)" stroke="rgb(153, 153, 153)" stroke-width="1.5px"></line></g></g><g><g><line x1="139.7583999633789" y1="0" x2="139.7583999633789" y2="377.95999908447266" fill="rgb(0, 0, 0)" stroke="rgb(153, 153, 153)" stroke-width="1.5px"></line></g></g><g><g><g><g><g><path style="fill: none;" stroke="rgb(0, 119, 187)" stroke-width="2px" d="M141.01622556304932,76.33164989237775L142.69332636260987,75.69073950518805L142.90296396255494,75.756657394711L143.6716351623535,75.4093385060171L144.71982316207885,75.50433351483463L146.3270447616577,75.66788682363762L150.58967596054077,75.66275588086711L150.79931356048584,75.04400494117618L151.42822636032105,75.16274416060702L155.7607367591858,75.60433620530523L156.11013275909423,75.74645799856711L157.5775959587097,76.00879873047575L158.41614635849,75.81661927017149L158.83542155838012,76.12976600728962L161.28119355773927,76.17518584838604L161.42095195770264,76.6260423170167L161.97998555755615,75.96895010933497L164.00648235702513,76.23381925691228L165.40406635665894,76.63208770668189L169.17754315567018,76.65287017879416L170.64500635528563,76.49798337344782L171.90283195495604,76.65956593563101L172.88114075469971,76.48700811161257L177.21365115356446,76.81181538569757L179.10038955307004,77.43007511384087L180.21845675277712,77.34937397481667L180.70761115264892,77.7171611300086L180.7774903526306,77.8393682771424L183.08350395202638,77.83122032069235L184.06181275177005,77.43918676717698L184.62084635162353,77.53391304654247L184.97024235153197,78.50218462931917L185.94855115127564,78.81422036620415L186.64734315109254,78.53339134532564L189.65214875030514,78.57330656157029L190.21118235015868,78.61306403080289L190.77021595001221,78.33883604374188L192.58707514953613,78.8616788234861L193.21598794937137,78.91144185773874L193.49550474929808,79.0872307366721L193.63526314926148,79.26329061815841L194.61357194900515,79.28586839696584L194.75333034896852,79.19476076541184L195.24248474884033,78.69732879138263L195.80151834869386,78.92776413268439L196.22079354858397,78.93329707499834L198.17741114807131,78.66133545807361L205.79424394607543,79.15439511202169L206.98219034576417,79.6286437239524L207.61110314559934,79.91239989947042L207.68098234558107,79.57421208422807L208.1002575454712,80.00279879955298L208.51953274536132,80.2403835026575L209.77735834503176,80.18561328879514L209.9869959449768,80.50831007271137L210.615908744812,80.20837838752499L214.0399895439148,80.52526468160636L214.24962714385984,80.94390163241098L214.66890234374998,81.19431140844279L215.08817754364014,81.11688628571306L216.13636554336549,81.35648492231985L216.55564074325562,80.96318279468045L216.90503674316406,80.84639742976049L220.5387551422119,80.74964255717794L220.88815114212036,81.27251264945056L220.95803034210203,81.4295107214291L222.21585594177247,81.53164977957152L223.1242855415344,81.38709524258707L226.6881247406006,81.36847741237358L227.8760711402893,82.19702306549158L229.2736551399231,82.92980285503734L231.71942713928223,82.62795145871036L231.92906473922727,82.7314010352203L232.90737353897094,82.60543907599794L233.1868903388977,81.88088578422122L236.5410919380188,83.50801445217974L237.03024633789062,83.53765531251798L238.56758873748777,84.50817293602364L239.40613913726807,85.14725965156487L240.10493113708498,85.1103334263363L242.20130713653566,85.32283112538414L242.96997833633424,85.82238700251759L243.52901193618771,85.32735753459411L243.9482871360779,85.10053506153838L246.18442153549194,85.92332294483668L248.21091833496095,86.032693390416L249.32898553466796,86.24449388224554L250.447052734375,87.25348386279427L250.72656953430177,86.82118135422127L251.91451593399046,87.26676941371505L254.3602879333496,88.81483463775368L257.2952143325806,88.86650143935816L257.9241271324158,90.61073420398469L258.3434023323059,89.99643012005345L258.69279833221435,89.64281152485694L259.1819527320862,90.30159235057977L259.8108655319214,90.57022935043568L260.78917433166504,90.98790829960592L260.92893273162844,91.50939955233684L261.1385703315735,91.82056414040545L261.7674831314087,90.48198982456222L264.21325513076783,92.10443157430848L267.35781912994383,93.35978970295861L268.61564472961425,94.07494098160811L269.2445575294494,96.22927259152516L270.15298712921145,96.24403247649036L270.3626247291565,96.8243676138053L270.92165832901003,96.8015309991647L273.7168263282776,97.21440703772635L274.9047727279663,97.57056654317773L275.6035647277832,99.10904231286321L275.8132023277283,99.03937433622235L277.2107863273621,99.59096816179391L278.3288535270691,100.34518631764035L279.5866791267395,101.23766279179108L280.4252295265198,102.880463659692L282.03245112609864,102.4035689439765L284.61798152542116,103.74053151508673L284.8276191253662,104.16558489245028L284.8974983253479,104.97370283867991L285.4565319252014,104.83418023089854L285.73604872512817,104.51643114760549L286.225203125,105.49456898073942L289.92880072402954,107.11954982263649L290.4179551239014,108.70766504290333L291.04686792373656,109.54680681611211L292.58421032333376,109.39958045092783L292.8637271232605,111.58645607007077L293.42276072311404,111.98839182060982L293.9817943229675,113.15716811069245L294.26131112289426,114.43749800458568L295.65889512252807,116.0221220248248L296.0082911224365,114.55214528697877L296.0781703224182,115.4593234517555L296.4275663223267,117.6474865647051L297.475754322052,117.57517222422138L297.82515032196045,119.30399634386623L299.15285512161256,118.56990197913234L300.2709223213196,120.86120885988305L300.9697143211365,122.37645549387881L301.8082647209167,122.59952152861143L303.62512392044067,122.99483211897149L304.2540367202759,123.20572616607868L306.69980871963503,127.96892073664566L306.7696879196167,128.59328384811772L306.90944631958007,132.38020651739558L309.9841311187744,135.50136580080476L310.54316471862796,135.6043718021214L311.17207751846314,137.914363333976L311.31183591842654,139.1027385581765L311.661231918335,140.81614838832388L313.4082119178772,141.50991741594956L313.47809111785887,142.81757352183305L314.1768831176758,144.65629508688428L314.31664151763914,144.67900998065463L314.6660375175476,144.6925616774717L315.64434631729125,146.78389717191322L316.0636215171814,148.95645240584741L316.6925343170166,152.40945631715053L317.74072231674194,155.91863839340002L318.1599975166321,151.17402842029523L321.8635951156616,154.2133149467413L323.0515415153503,162.05088393906217L327.3840519142151,167.41387408294204L327.73344791412353,166.86034412750192L328.6418775138855,172.77879220311434L331.22740791320797,178.4413042659581L332.20571671295164,180.89864782872615L334.65148871231077,184.56379634748959L340.45146231079104,194.6920860691839L341.7092879104614,199.01744436362284L342.12856311035154,202.29441587702595L343.8056639099121,206.65990826510017L347.0899863090515,209.94751542194234L347.649019908905,217.99486681043527L350.16467110824584,224.19595388984635L351.49237590789795,227.1637815873255L352.0514095077515,226.6753480865362L352.2610471076965,226.7363072586905L354.21766470718387,227.60042360203485L356.31404070663456,227.99499618881987L360.2272759056091,231.70429645975253L360.64655110549927,236.33685855389015L361.76461830520634,240.45395128100537L363.0224439048767,240.35190167742468L363.09232310485834,243.5950036973789L365.4682159042359,241.26449015867354L366.16700790405275,246.0712746483539L366.3766455039978,244.66560044353903L366.4465247039795,249.00405898471695L366.58628310394283,247.93135268658438L366.6561623039246,249.75061674963942L368.4031423034668,250.0964798380868L370.7091559028625,244.67352535535449L373.5043239021301,247.53460900956756L375.67057910156245,252.8706481060741L377.5573175010681,254.0715639642798L377.90671350097654,254.36734287487235L379.44405590057374,259.14337386921187L380.77176070022585,259.1980817068403L381.81994869995117,260.96000664975105L382.93801589965824,260.17109253416686L384.96451269912717,259.4773696293804L385.17415029907227,263.1896537420978L386.92113029861446,262.34122592311127L389.9259358978272,264.1761263507517L391.323519897461,266.407604917237L392.58134549713134,267.4416047955223L392.7211038970948,267.46469922036766L392.86086229705813,267.26375040382993L393.2801374969482,263.1225178447943L395.23675509643556,265.33902150101204L396.2150638961792,263.12042000417176L400.1282990951538,271.1749716565204L400.40781589508055,266.33557078719207L401.1764870948792,270.4377642057521L404.810205493927,271.6354738309852L405.15960149383545,269.9620042902641L406.2776686935425,269.64487216792935L406.6270646934509,272.72747792388657L406.76682309341425,277.324873256279L407.4656150932312,273.7897117373298L409.77162869262696,273.5170397103662L410.61017909240724,268.36689911351436L414.2438974914551,268.46919826043984L415.01256869125365,271.92435795740886L416.2005150909424,269.09151060657223L418.1571326904297,274.93957640411224L420.81254228973387,274.1891470943978L421.58121348953244,277.7830052478598L421.79085108947754,276.23118568819746L425.7739654884338,271.04451463498873L426.1233614883423,273.2198764251794L426.8920326881409,275.55319299514355L431.9932142868042,270.0912396465482L432.76188548660275,275.83173551931156L432.83176468658445,276.3745448740607L432.9715230865479,270.39625593640176L433.3209190864563,271.27455797336984L433.390798286438,278.7155959397271L435.13777828598023,277.64361676868333L435.48717428588867,270.98396696398135L435.69681188583377,277.9077427153228L436.25584548568725,274.040245092019L437.653429485321,274.115822239968L437.86306708526615,276.22266228439776L437.93294628524785,277.25995782984364L438.9811342849731,276.94013879744296L440.51847668457026,272.61565642900894L441.4269062843323,275.7574195863579L441.5666646842957,275.36179491515315L445.0606246833801,278.7867103788604L446.7377254829407,277.09795257890875L447.2268798828125,273.58070451165014L447.6461550827026,277.70812056947176L449.3232558822632,282.5414945387037L449.53289348220824,283.61733048638234L453.6557662811279,277.55726903227L454.8437126808167,279.4565442119278L456.31117588043213,276.04164939488516L456.52081348037717,282.27321484658063L459.6653774795533,283.0234639025059L459.8750150794983,282.6425761237949L460.9930822792053,284.33244084160583L463.15933747863767,286.2013604223979L465.11595507812495,285.74172886509314L465.6749886779785,284.4966618356766L465.95450547790523,281.15546791380893L466.51353907775876,278.8031315760862L469.0990694770813,281.61355674068335L469.4484654769897,284.752405164944L470.5665326766968,281.40963929706373L471.68459987640387,284.8761846271736L472.2436334762573,286.0258759936436L472.8725462760925,286.4335994868141L474.2701302757263,283.74171732545904L474.340009475708,286.2104305891948L475.1785598754883,283.07771266396253L475.3183182754517,286.92516148057086L477.9737278747559,290.4628553447809L478.81227827453614,288.286836504554L480.13998307418825,287.20452186152636L481.7472046737671,288.4466318239945L483.1447886734009,288.0003635017864L486.498990272522,286.5095313433421L487.12790307235724,284.05967550305246L487.3375406723023,280.4777330489437L491.2507758712768,285.3493370506679L492.6483598709106,282.8964443719944L492.78811827087407,289.9695772680986L492.85799747085576,286.7208781051808L496.56159506988524,285.21595534347983L497.95917906951905,283.67165682739096L498.5182126693726,288.4923592663487L501.8724142684936,290.7507349982161L503.13023986816404,293.2882294008201L503.6892734680176,293.4559307276056L505.85552866744996,292.56774759551706L509.3494886665344,291.5335382697374L512.144656665802,288.75611146870926L513.2627238655091,292.1829402565294L514.2410326652526,291.3006649506337L515.7084958648682,292.03549321278194L518.5036638641358,289.990298311507L520.0410062637329,289.79168637367854L520.3904022636414,288.3480030460041L523.7446038627625,293.40433347356924L525.1421878623962,294.9111362217984L525.2819462623596,291.8135928375137L527.5180806617736,287.2587407647593L529.1951814613342,286.18209940134045L530.0337318611145,286.79810799211384L530.1734902610779,285.71908220460875L530.592765460968,282.20546025439L533.1782958602905,289.6209737428009L535.1349134597779,291.5345134281736L535.2746718597413,288.7063853638872L535.554188659668,286.50611846447504L536.6023766593934,286.93433238135975L539.4674238586426,287.56922423209653L539.6770614585877,289.72497761042143L543.3806590576172,290.39651951005686L545.5469142570495,295.14924321701903L545.6167934570312,291.41181596083106L546.80473985672,294.9611091915921L547.0143774566651,295.64799776337924L549.3902702560425,295.7094445158793L549.5300286560058,296.0034722885396L550.0191830558776,299.4970173793038L552.5348342552185,297.64801168701723L554.002297454834,295.71837814507137L555.6793982543945,293.9802002323083L556.028794254303,289.2102482421045L556.4480694541932,290.7097812530667L558.3348078536987,288.9782363767084L559.7323918533325,290.2239595493371L560.0817878532409,293.3587424048744L561.1299758529664,295.04782528871294L561.4793718528748,288.86390656489584L564.4841774520874,289.68433621622626L566.2311574516297,286.83894370295803L566.370915851593,287.77763936123125L567.4889830513001,291.1552831972462L568.0480166511535,295.74883813671124L568.187775051117,294.8874378740799L571.6817350502015,296.5399396220173L573.0094398498535,295.05529854006767L573.7781110496521,289.8755079162995L573.9178694496155,292.395475874734L574.3371446495056,288.95090619635334L575.2455742492676,291.17602693606756L576.503399848938,291.1763657236574L579.2286886482239,293.1425021104057L580.8359102478028,294.85030156797865L581.1853062477112,293.97687916534454L582.8624070472717,297.33867269076785L583.6310782470704,296.45300034683396L584.3997494468689,292.54023812175444L584.8889038467407,287.04477216543194L585.3081790466308,290.238220534459L586.9852798461914,292.5034710645923L591.1081526451111,296.3164426010773L593.6238038444519,300.3278790950991L593.6936830444336,297.870401562268L593.9731998443604,298.8436066673444L595.3707838439941,300.99230755692815L595.4406630439759,298.85058154821115L595.5105422439575,290.35823805960166L596.069575843811,294.4860340117424L599.1442606430054,292.33196612024585L599.6334150428772,296.3148726371319L599.8430526428223,294.2784152956472L601.1707574424744,294.76368324417496L604.9442342414856,295.52487435779733L605.5731470413208,295.40934772377676L605.7129054412842,294.9996091877206L605.9924222412109,290.9737989304132L606.4116974411011,287.94954236560324L606.6213350410461,291.4180016934264L607.110489440918,290.96502617277565L607.6695230407715,290.6727119032043L607.8791606407166,296.79204589377207L608.7177110404969,289.76033436499057L610.6044494400024,290.22233192728424L610.8839662399292,291.13100412264623L611.6526374397278,289.81553237946616L612.4213086395264,289.84974282668713L617.1730942382812,295.5912660604665L618.1514030380249,299.3316511303214L618.7104366378784,298.237019852542L619.6887454376221,298.0392654531167L619.7586246376038,298.7843499884688L621.5754838371276,296.6240905533152L624.3007726364135,299.8504009515798L626.3272694358826,298.1642751313535L626.5369070358277,293.5280550022793L628.3537662353516,296.5218998568307L629.611591835022,299.32544389129237L629.8911086349488,296.74182499626L631.6380886344909,297.175734181059L635.2718070335388,297.24148327763936L636.3199950332641,295.91800732555294L636.8790286331176,298.92043100446494L636.9489078330994,300.4045623995468L638.4862502326965,298.780332163626L639.7440758323669,291.89474940198147L642.5392438316345,292.54803836549814L644.00670703125,290.3957238251408L646.1729622306824,287.3772739819431L649.8765598297119,289.74025458449455L650.6452310295106,288.04828762469856L651.9030566291809,290.5141115883273L652.6018486289978,292.04948226840713L652.6717278289796,298.5709403441509L653.9994326286316,300.33262326635327L655.6066542282105,297.0862424857523L656.9343590278626,297.3056987790203L659.0307350273133,292.82565502949825L659.6596478271484,296.66793421426996L659.8692854270935,293.4827241849561L660.3584398269653,294.9288125792137L661.0572318267822,295.17832541699124L661.2668694267273,300.40508998068117L661.6162654266358,300.3951951316266L662.3150574264527,300.62304528726975L664.6210710258483,297.260477675765L665.9487758255004,296.3806393772953L667.1367222251893,298.9821440090196L671.4692326240539,297.2117545776427L673.9150046234131,302.59702244985425L675.1029510231018,301.09614010915016L675.8017430229187,299.1919278847952L676.1511390228271,298.3590579911844L676.9198102226258,296.49983621437303L677.339085422516,296.06732898657356L677.8282398223877,293.66502093038673L679.0860654220581,294.8736635281467L679.4354614219666,296.37050397002133L679.784857421875,296.88235050546143L681.0426830215454,294.58477119318354L681.811354221344,296.3196272036001L682.020991821289,299.1012243922992L683.4185758209228,297.6303748034311L683.9776094207764,300.66538598255954L684.6764014205933,299.6766096269597L687.1221734199523,301.21370361484077L687.4715694198609,291.70319211411766L691.7342006187439,296.06218001049695L691.8040798187255,298.2581007699269L694.0402142181397,299.8029006843098L697.0450198173523,300.161582815696L697.6040534172058,304.5401661807002L698.1630870170593,304.5445214655834L698.232966217041,303.76133141794026L700.6088590164184,304.2588156926316L701.3775302162171,300.46383580006693L702.2160806159973,294.7014977189114L703.404027015686,300.0726793032329L707.5967790145874,297.67022999184735L709.2738798141479,299.9668341529967L711.3702558135986,302.5944085754629L711.6497726135253,300.83970671853626L712.6280814132691,296.25826527796175L713.8160278129578,299.21492631821224L714.2353030128479,298.34704298502334L717.1702294120788,301.0050103041386L718.2882966117859,297.8466149193999L719.0569678115844,296.3391613620487L719.6858806114197,300.889110983568L720.2449142112731,302.2718175749231L721.642498210907,301.4026500476559L721.7822566108703,302.0607664282693L721.9918942108153,300.7849193818613L722.1316526107789,297.73283908071426L722.550927810669,297.03817190918124L723.9485118103028,296.6945559804847L724.1581494102478,299.06966431198794L724.5075454101562,293.5600715193838L725.1364582099915,297.63059016263253L731.4255862083435,300.18685012727565L731.4954654083251,299.75886773739757L731.6352238082885,302.35002602002896L732.6135326080322,300.50368542225186L732.893049407959,300.2179565692352L733.5219622077942,290.99483448022465L733.591841407776,293.55344409318985L733.9412374076843,300.2779490596585L734.2906334075927,300.8103002047344L735.3388214073182,301.73097362814264L738.3436270065307,302.0119473298848L738.8327814064025,301.5891181311405L739.1821774063111,301.8558793027751L740.1604862060547,302.43990975647824L740.7893990058899,299.00746634482164L743.0954126052856,300.98639838719544L743.1652918052672,295.60486399502963L743.7942046051025,296.63438246759597L746.4496142044068,295.9037097539634L747.0086478042602,298.26926919667335L747.0785270042419,300.99288171801464L747.3580438041686,300.6305910879253L749.5941782035827,302.47908157446216L752.878500602722,301.47002697774997L753.158017402649,296.2637359165575L754.7652390022279,296.87886921382966L756.0230646018982,297.3873844131186L756.2327022018433,295.74746656163535L757.7001654014588,302.0880809357167L758.4688366012573,298.48828021575986L760.145937400818,299.4539911223423L760.6350918006897,298.9373970207397L761.8230382003785,297.4994228304352L761.9627966003418,301.0470724224777L762.1724342002868,302.26150438026485L763.6398973999023,303.76543002587573L763.7796557998657,304.03968390069673L764.1290517997741,302.2932686315075L764.8977229995728,300.37378327440206L765.7362733993531,301.51912557261664L766.9242197990417,303.95572328142845L768.1820453987121,300.6279808842485L768.6013205986023,304.4649687631768L769.3001125984192,303.1235354923476L770.6278173980713,305.3046404798546L772.5145557975768,303.2362951653843L773.0735893974305,302.68782005969405L774.5410525970459,301.48584301604325L776.0085157966614,300.2451352709053L777.2663413963319,300.30158132714655L779.5024757957458,303.1231383243622L779.9916301956177,299.3999911399804L783.7651069946288,299.450767732022L784.4638989944458,298.2408435075521L784.9530533943176,301.19103277743926L786.8397917938231,299.9521859192397L788.3072549934388,301.691650297731L789.0060469932556,301.86799303533934L790.1241141929627,299.0782875547214L790.7530269927978,296.98673661208795L792.9891613922119,301.17198871073543L794.107228591919,299.03879907748296L794.4566245918274,296.85729500147147L797.46143019104,297.04099784490984L797.671067790985,298.3338513609532L799.0686517906189,295.22542606996006L799.5578061904909,298.36363833984444L801.3746653900147,298.5841642969252L801.8638197898864,296.1616333205625L806.2662093887328,298.0200320740174L806.8951221885682,297.1185483063478L807.3842765884399,297.9076678662554L808.0830685882569,302.01585603039484L808.2927061882019,304.00345233005254L809.8300485877991,307.0379935463635L810.5987197875976,305.7282650363561L811.3673909873962,304.4669367570781L812.4854581871033,301.4970694158191L814.1625589866638,302.1463519452981L814.5818341865539,297.04310076059073L816.1890557861327,296.95535143228346L816.8878477859497,296.05024869955747L817.4468813858032,295.331361761766L821.7095125846862,300.47299201872556L822.3384253845215,295.5059125011041L822.9673381843567,296.7226901719435L825.4131101837158,300.84685752695805L827.3697277832031,304.8580830437098L827.5793653831481,304.87758526096843L830.3745333824157,304.6269350921291L832.0516341819764,304.262792550482L836.5937821807862,303.086185823234L839.5287085800171,303.64011106449317L842.0443597793579,302.62021657784965L842.3937557792664,297.952620067842L842.6033933792114,296.12265045419684L843.5817021789551,300.49967925969065L844.4202525787352,301.51545861848376L846.0274741783143,301.51043302411495L846.4467493782043,302.53467074775756L847.4949373779298,299.54345852734707L847.9142125778199,302.5151927995261L848.6130045776366,302.64668281269485L850.2901053771974,305.3214902968378L851.4780517768859,302.59292781066836L853.015394176483,301.86922657125535L855.6708037757872,302.5007466796981L856.439474975586,301.1415922921791L857.8370589752197,296.7902104578041L858.3262133750915,299.52827343393005L858.6756093749999,304.3337601129306L861.610535774231,303.88133344605365L864.1261869735717,306.5389104882797L866.0828045730591,306.18832482564596L866.2225629730225,307.01342869373616L866.2924421730041,306.3924299513474L866.4322005729675,306.3998616490004L867.480388572693,306.1890601270833L867.899663772583,306.2837356987505L868.2490597724914,300.35396525562885L870.2755565719605,300.299606335955L871.253865371704,303.9578720748431L872.0225365715027,302.9138455939441L872.7213285713195,302.18999085809884L873.0008453712464,301.45547146535836L873.0707245712281,300.06145643784185L875.0273421707153,302.9472458886984L875.6562549705507,301.26075053084435L877.2634765701295,301.08621386430286L877.3333557701111,299.70436724826004L878.1719061698913,301.46285149199167L880.3381613693238,303.9245502164363L880.9670741691589,303.6354637926264L882.1550205688476,304.9879524845628L882.504416568756,306.64631313626217L883.1333293685914,309.90042077151395L883.6923629684447,302.68516343527403L884.2513965682984,302.3985297782797L885.4393429679869,306.37504928411715L887.5357189674378,302.96267115313276L888.2345109672546,305.5484858587236L890.8200413665771,302.26804749864215L891.4489541664124,302.062403423786L891.5188333663941,299.8959551294588L891.9381085662842,297.88636636235174L893.0561757659913,300.38860079888144L893.545330165863,304.68376331437923L895.5019477653505,304.4111755414362L895.5718269653321,299.32333147847106L896.2007397651672,302.65191112643964L896.5501357650757,299.66366725298263L897.3188069648743,303.51018007414547L897.9477197647094,304.4459026346662L898.9260285644531,303.1056501835485L901.5814381637573,304.19403890634726L901.7910757637023,306.04656532087006L902.4199885635377,303.6326295914001L904.1669685630799,304.6840642208271L904.4464853630066,304.49877568925837L905.0753981628417,305.8240888968699L906.0537069625855,307.98859830118704L906.4729821624755,307.39864117045147L906.6127405624391,306.5815913158728L908.9886333618164,299.1631627602152L909.4079085617064,301.68960105823595L909.8271837615968,306.19537012973854L909.96694216156,303.6899334154675L910.7356133613586,302.2500972009031L911.0850093612671,302.3069855632878L912.0633181610107,306.6852696571393L912.692230960846,303.77646269366846L913.8102981605531,306.18267832439983L915.5572781600953,305.54506598443817L916.8849829597474,302.94885212924106L917.5138957595825,301.7720751959297L918.7717213592529,302.20110962240057L920.6584597587585,303.7386858989588L922.2656813583375,303.9685798607619L922.4054397583009,303.7480801562808L922.4753189582825,304.7675202275085L926.0391581573485,307.81923787939377L926.5981917572022,303.79819198295615L926.8078293571473,301.80046899763823L927.4367421569824,300.89976383771267L930.0921517562866,299.26156869178783L932.258406955719,303.0570460592628L933.6559909553529,305.2046255669313L934.983695755005,302.69417176194025L937.1499509544373,306.4446619547477L937.7089845542909,302.9088555858736L937.8487429542542,308.0907120936716L940.2246357536316,308.4310120242735L941.4125821533203,307.7604971050172L942.810166152954,303.87251617682546L944.7667837524415,304.9286288704426L944.9764213523865,306.52936137295205L945.0463005523682,303.43564078899516L945.4655757522582,301.28290744976584L945.6053341522216,303.3287452488674L946.7932805519104,303.13394726952845L947.3523141517638,302.340905368334L947.9812269515992,305.51485126732246L949.0294149513245,306.92595033149223L950.1474821510315,304.2066634817356L952.8727709503173,303.1644431421493L953.7113213500977,304.7988352242484L953.851079750061,298.0441222040497L954.549871749878,298.64552643897724L955.3185429496765,300.1753100982718L956.2968517494202,303.65558086218954L956.4366101493836,299.3709960554473L957.6245565490723,300.9406089832198L958.9522613487244,302.6736105351083L961.4679125480651,302.22513158612105L963.3546509475708,303.4214650830745L963.7739261474609,299.2098212673976L964.4028389472962,301.0437721168165L966.4992149467469,300.2737823833183L968.1064365463257,302.48716789155634L968.1763157463073,307.0931701214854L969.4341413459778,306.54595767874207L971.390758945465,307.1031321764058L971.7401549453735,302.6012132474349L973.6268933448791,305.8317493955069L974.5353229446412,303.6390326482027L974.6750813446046,302.57409351745423L974.7449605445862,301.9134688802915L976.14254454422,305.1461990805029L976.4919405441284,304.3072569423832L977.4702493438721,307.08412280375967L978.169041343689,300.82924260823177L978.5184373435975,304.4697752299209L979.0075917434692,304.6281228244091L980.3352965431213,303.8739995414993L981.1738469429015,301.5737675212235L983.6196189422607,305.9204600709194L984.248531742096,307.2351860560856L987.9521293411254,307.85180536210135L989.0003173408509,305.1625877144364L989.7689885406495,305.36645428148853L990.0485053405762,305.47747859653737L991.1665725402833,307.0461963517099L992.0750021400452,306.69312626709353L993.4725861396789,306.73157477616735L994.1014989395143,301.841910078046L994.6605325393676,303.1613270495647L997.1761837387086,304.18798789909454L998.5737677383423,303.04745451054094L998.7834053382874,305.03331239278094L999.9014725379944,308.2759492294648L1001.0195397377015,306.60963111352896L1005.9809629364014,304.26343763856175L1006.6098757362365,307.09653912571184L1008.7761309356689,304.3880352852431L1010.103835735321,303.37043151519157L1010.313473335266,300.3783293511334L1011.8508157348632,297.6044249735402L1016.392963733673,303.62380698965427L1016.8122389335633,304.79815838273197L1016.9519973335266,306.645891765071L1018.4194605331421,307.1861943025676L1019.9568029327393,309.6140635585929L1021.9832997322081,309.0303802997055L1025.197742931366,310.3953845416346L1027.1543605308532,310.4652539384379L1031.277233329773,303.3916355560216L1032.39530052948,305.93254298336376L1034.5615557289123,306.820921485494L1035.1205893287658,304.23578188987494L1036.5880525283815,303.62594766530725L1038.3350325279237,304.32165567234483L1038.684428527832,304.5852767878688L1039.592858127594,305.37841433808705L1040.501287727356,308.1968176554027L1040.920562927246,306.4980633831899L1043.855489326477,306.761776025353L1043.9253685264587,299.49872315450955L1044.274764526367,304.55877485499855L1045.3229525260924,305.01166973425427L1049.3759461250306,301.0291622994724L1050.5638925247192,303.90140772974104L1052.450630924225,301.42937545033243L1052.5205101242066,303.86693587605737L1053.07954372406,305.50948252024807L1053.9180941238403,304.8837210173771L1054.7566445236207,302.13195139307385L1055.8048325233458,303.08312514331425L1056.0843493232728,303.21896101900614L1057.2722957229614,307.6588675167714L1058.5301213226319,309.39938681556754L1059.7879469223021,306.1198490629045L1060.8361349220277,304.72209880480113L1061.5349269218443,304.24312249360975L1061.7445645217897,305.34754773840734L1062.5831149215699,304.53599152642676L1062.6529941215515,304.27007782770295L1062.9325109214783,303.568458033527L1064.8891285209656,306.22611848761113L1066.7059877204895,308.6707264856763L1069.0120013198853,310.31727446057016L1070.0601893196106,310.3504966703818L1072.5758405189513,311.4726297974281L1072.92523651886,305.6664619081288L1076.279438117981,305.4020471783108L1076.5589549179076,302.609852519206L1077.9565389175416,305.095821126588L1081.3806197166443,304.5244499971687L1083.1974789161682,303.2467745000909L1083.4071165161133,297.337583039268L1086.3420429153443,300.42774107360356L1087.4601101150513,304.86411982669836L1089.9058821144104,307.97770836331085L1090.9540701141357,307.9860547249764L1091.5131037139893,308.40621876637886L1091.9323789138793,309.8909164855538L1094.2383925132751,312.30268599512823L1095.426338912964,311.48331516921587L1095.6359765129089,311.9365605526437L1095.845614112854,311.3885238568577L1096.7540437126158,311.3521432517397L1098.6407821121215,311.76934840019777L1099.898607711792,309.10280430318414L1100.3877621116637,305.37849380213675L1100.8769165115357,303.82211038011184L1102.4142589111327,307.18445219101346L1103.8817221107483,308.6155088343767L1104.7901517105101,309.01338120929984L1107.2359237098694,308.8762053578177L1108.8431453094483,303.9098135098849L1109.0527829093933,302.90010883549814L1109.9612125091553,303.24683183251443L1110.240729309082,304.4888288877804L1110.6600045089722,307.47157145647105L1113.6648101081848,308.31197382597685L1113.7346893081665,310.7378068056033L1115.0623941078186,309.55929830098785L1115.2720317077637,310.91783728672846L1115.831065307617,310.5745318483116L1115.900944507599,308.3987580044469L1115.9708237075806,300.9660224008015L1116.3900989074707,299.664719970903L1117.7876829071045,300.29625983545805L1117.927441307068,301.41349243797794L1119.1852669067382,297.60652848733963L1122.6792269058228,298.50989972005465L1123.6575357055665,302.0652340352223L1124.0768109054566,300.52820607392357L1126.452703704834,300.44003305481067L1129.3177509040834,300.88152477080246L1131.2743685035705,299.8833038449709L1133.1611069030762,303.1051633338483L1133.5105029029846,300.59745763592684L1133.9297781028747,304.0046475840189L1135.5369997024536,306.9167834072026L1137.2839797019958,309.05754902454777L1138.1225301017762,310.19758865517275L1138.1924093017578,308.01317952882744L1138.611684501648,306.86174192822693L1139.2405973014831,303.59565318966827L1140.4285437011717,304.0521527748916L1141.2670941009521,304.9819505838731L1141.6863693008422,308.5021711786474L1143.083953300476,306.9395815803946L1143.363470100403,307.12673905887385L1145.0405708999633,305.0889545143888L1145.1803292999268,303.6054835140255L1145.8092420997618,307.9375678421535L1149.3032020988464,309.4931690337288L1150.980302898407,308.52570369373257L1152.587524497986,304.43742212475433L1155.1031756973266,307.7433631304369L1156.7802764968872,310.0269440829462L1156.9200348968507,308.2279669118251L1156.9899140968323,307.53652215874L1159.086290096283,310.31886885189186L1160.8332700958251,309.4637635345829L1161.1826660957336,308.4470830706563L1162.2308540954589,308.3004065459305L1162.6501292953492,309.89907227874744L1164.7465052947998,308.05729363027L1164.8163844947815,310.07931493765074L1165.375418094635,308.75060397429365L1165.6549348945616,306.9507295849112L1166.074210094452,306.05011246108705L1167.1922772941589,305.98247462455237L1170.1970828933715,308.3052216599857L1171.035633293152,307.197986990778L1171.8043044929505,307.7180448515402L1172.5030964927673,309.26318992999256L1172.572975692749,304.42333155305687L1172.8524924926758,305.7768425107065L1173.1320092926026,306.26803592615823L1173.4115260925294,306.50429845070886L1174.599472492218,307.55569589900176L1175.0187476921083,302.203865610453L1175.2982644920348,305.88608539049335L1175.4380228919983,308.44747690205725L1177.1850028915405,307.20461704992266L1178.5127076911926,307.54101482210547L1179.0018620910644,307.9454293780541L1179.0717412910462,307.6647268035233L1180.1898084907532,305.7951451004086L1180.3994460906983,308.39571330155303L1182.6355804901123,304.0725464298154L1182.705459690094,302.48096263218935L1182.7753388900758,306.5457462822942L1184.4524396896363,305.4193708102318L1185.4307484893798,303.8640154601142L1188.994587688446,307.2197763633709L1189.8331380882264,305.43092522565183L1194.2355276870728,307.29560800466516L1197.1704540863038,306.9258481440338L1197.4499708862304,307.4950464411701L1198.8475548858642,310.21070513897735L1200.5246556854247,308.77650204139684L1200.6644140853882,309.26160588816913L1201.8523604850768,311.0808673525616L1204.4378908843994,310.69682771162275L1205.2764412841798,309.7176331604351L1206.53426688385,306.8702080565275L1206.8836628837587,308.23460009033533L1207.023421283722,305.6807603154104L1207.7222132835388,306.94440077962037L1208.9800388832093,309.7655746843933L1210.0981060829163,312.04584721000526L1210.587260482788,311.94411898248L1211.7752068824768,309.64552290620674L1212.194482082367,305.3506379998315L1212.6836364822389,302.9974472002621L1215.967958881378,305.70785017965505L1216.3173548812865,306.33965857090794L1217.4354220809937,308.6764886950124L1217.8546972808838,307.524181771025L1218.5534892807007,307.02740239853813L1219.8113148803711,303.916152532723L1220.3004692802429,303.77350159949805L1220.99926128006,304.30411960855076L1221.0691404800416,305.55556479518543L1221.1390196800232,300.04911770543697L1222.047449279785,300.50635986406684L1223.3751540794372,303.1160674590247L1224.772738079071,304.12580727473215L1225.5414092788697,306.35641443107596L1228.825731678009,310.75970346770106L1229.6642820777893,310.0895633943961L1230.4329532775878,308.7179196299976L1232.669087677002,309.4460066675201L1234.905222076416,308.5962096848431L1237.0714772758483,308.1767930460028L1239.657007675171,308.0301423643547L1241.3341084747315,308.9540575578902L1241.9630212745667,305.1525203512334L1242.3822964744568,309.1159842768466L1243.430484474182,311.30018068278247L1244.6184308738707,309.52018548177534L1245.5967396736146,308.5360446520577L1245.8063772735595,308.56238663877554L1247.1340820732116,308.1684571717863L1248.4617868728637,306.3447065991944L1254.052122871399,306.78877442293737L1256.3581364707948,309.3007575972534L1256.9171700706481,305.8755723510529L1257.3364452705382,305.16112041233384L1259.013546070099,304.92850613257565L1259.0834252700806,306.7012574927537L1259.5725796699523,304.51721943015303L1261.7388348693848,306.3316979254397L1263.6255732688903,309.15604997211614L1264.4641236686707,309.8891813693249L1265.6520700683593,308.6487431135115L1265.931586868286,310.94551039775695L1270.0544596672057,312.5550499831271L1270.9628892669677,312.0470834199134L1271.6616812667846,312.3076704735662L1271.9411980667114,312.25378530382795L1272.3604732666015,313.5110851715872L1273.6881780662536,301.7000588339197L1275.2255204658509,307.17092774088616L1276.133950065613,309.90702120542124L1280.2568228645325,309.6290273327703L1281.7941652641296,308.30510366396834L1282.0736820640564,304.4578578208359L1282.2134404640199,306.7641526407601L1282.2833196640015,304.4457347943025L1282.9821116638184,305.1020443109609L1284.3796956634521,305.5302009303591L1285.078487663269,306.5785353127386L1285.986917263031,308.86339033855165L1286.196554862976,308.3453905180102L1288.5724476623536,303.35726849019073L1289.2013604621886,304.21794907217253L1292.276045261383,306.57989612516934L1293.1145956611633,306.2935187870419L1296.8880724601747,304.77374885183013L1298.7049316596986,307.95492480718997L1299.054327659607,310.36599251296445L1300.4519116592407,309.76295186657126L1304.015750858307,301.1872074694685L1304.2952676582336,301.8361732455501L1306.5314020576477,305.85135120179626L1309.9554828567505,309.0788671821998L1311.3530668563842,307.6254295690908L1313.5892012557983,309.4416121882973L1314.2879932556152,307.9602372250349L1314.3578724555969,307.51815940452263L1316.104852455139,307.0382276055723L1316.4542484550475,308.4436944414967L1316.7337652549745,308.3919463815138L1317.712074054718,309.90413715279846L1320.647000453949,309.4470779659391L1321.6951884536743,309.0573347256629L1322.3939804534912,307.99932781083015L1327.634920452118,308.1288807049121L1330.2204508514403,311.50322671557524L1330.7096052513123,311.63013228075454L1332.3168268508912,309.9446714118792L1334.4830820503234,313.1276264568712L1336.8589748497009,310.88283294725136L1336.9288540496825,313.5153687757868L1338.4661964492798,307.4111524351662L1338.8155924491882,311.3514156219824" fill="none"></path></g></g></g></g><g opacity="0.2"><g><g><g><path style="fill: none;" stroke="rgb(0, 119, 187)" stroke-width="2px" d="M141.01622556304932,76.33164989237775L142.69332636260987,75.30619327287422L142.90296396255494,75.81993856865301L143.6716351623535,75.00089149291307L144.71982316207885,75.62835899834681L146.3270447616577,75.89413992890331L150.58967596054077,75.6554185506102L150.79931356048584,74.14186013109793L151.42822636032105,75.33786144536134L155.7607367591858,76.26004892677884L156.11013275909423,75.95835165425524L157.5775959587097,76.40088218166056L158.41614635849,75.528977578997L158.83542155838012,76.59887262590928L161.28119355773927,76.2432622207125L161.42095195770264,77.30200904105004L161.97998555755615,74.98358985721279L164.00648235702513,76.63105572803033L165.40406635665894,77.22942970914664L169.17754315567018,76.68404198736243L170.64500635528563,76.26566165978875L171.90283195495604,76.90193446196281L172.88114075469971,76.22817478243815L177.21365115356446,77.29902244917321L179.10038955307004,78.35746031173039L180.21845675277712,77.22832261043368L180.70761115264892,78.26884092172986L180.7774903526306,78.02267881022635L183.08350395202638,77.81899839352263L184.06181275177005,76.85113665357494L184.62084635162353,77.67600243417837L184.97024235153197,79.9545918108306L185.94855115127564,79.28227393428097L186.64734315109254,78.11214783412288L189.65214875030514,78.63317938422188L190.21118235015868,78.67270023362653L190.77021595001221,77.92749406739313L192.58707514953613,79.64594298824886L193.21598794937137,78.98608640884049L193.49550474929808,79.35091405448475L193.63526314926148,79.5273804400349L194.61357194900515,79.31973506514987L194.75333034896852,79.05809931814656L195.24248474884033,77.95118083055422L195.80151834869386,79.27341714457725L196.22079354858397,78.94159648846835L198.17741114807131,78.25339303271176L205.79424394607543,79.89398459291624L206.98219034576417,80.34001664183234L207.61110314559934,80.33803416274168L207.68098234558107,79.06693036136858L208.1002575454712,80.64567887253725L208.51953274536132,80.59676055731325L209.77735834503176,80.10345796800175L209.9869959449768,80.99235524858523L210.615908744812,79.75848085974576L214.0399895439148,81.00059412272822L214.24962714385984,81.57185705861775L214.66890234374998,81.56992607249049L215.08817754364014,81.0007486016184L216.13636554336549,81.71588287722989L216.55564074325562,80.37322960322126L216.90503674316406,80.67121938238051L220.5387551422119,80.604510248304L220.88815114212036,82.05681778785947L220.95803034210203,81.66500782939693L222.21585594177247,81.68485836678519L223.1242855415344,81.1702634371104L226.6881247406006,81.34055066705332L227.8760711402893,83.43984154516875L229.2736551399231,84.02897253935589L231.71942713928223,82.17517436421986L231.92906473922727,82.8865753999853L232.90737353897094,82.41649613716436L233.1868903388977,80.79405584655615L236.5410919380188,85.94870745411754L237.03024633789062,83.5821166030255L238.56758873748777,85.96394937128207L239.40613913726807,86.10588972487676L240.10493113708498,85.05494408849336L242.20130713653566,85.64157767395591L242.96997833633424,86.57172081821773L243.52901193618771,84.58481333270902L243.9482871360779,84.7603013519547L246.18442153549194,87.15750476978428L248.21091833496095,86.19674905878492L249.32898553466796,86.5621946199899L250.447052734375,88.76696883361728L250.72656953430177,86.17272759136176L251.91451593399046,87.9351515029557L254.3602879333496,91.13693247381161L257.2952143325806,88.94400164176477L257.9241271324158,93.22708335092466L258.3434023323059,89.07497399415661L258.69279833221435,89.11238363206212L259.1819527320862,91.28976358916407L259.8108655319214,90.9731848502197L260.78917433166504,91.61442672336125L260.92893273162844,92.29163643143329L261.1385703315735,92.28731102250822L261.7674831314087,88.4741283507974L264.21325513076783,94.53809419892787L267.35781912994383,95.24282689593383L268.61564472961425,95.1476678995823L269.2445575294494,99.46077000640071L270.15298712921145,96.26617230393822L270.3626247291565,97.69487031977769L270.92165832901003,96.76727607720386L273.7168263282776,97.83372109556876L274.9047727279663,98.10480580135481L275.6035647277832,101.41675596739151L275.8132023277283,98.93487237126101L277.2107863273621,100.41835890015136L278.3288535270691,101.47651355140988L279.5866791267395,102.57637750301728L280.4252295265198,105.34466496154346L282.03245112609864,101.68822687040301L284.61798152542116,105.74597537175214L284.8276191253662,104.80316495849547L284.8974983253479,106.18587975802438L285.4565319252014,104.62489631922654L285.73604872512817,104.0398075226658L286.225203125,106.96177573044042L289.92880072402954,109.55702108548212L290.4179551239014,111.08983787330362L291.04686792373656,110.8055194759254L292.58421032333376,109.17874090315127L292.8637271232605,114.86676949878529L293.42276072311404,112.59129544641837L293.9817943229675,114.91033254581635L294.26131112289426,116.35799284542554L295.65889512252807,118.39905805518356L296.0082911224365,112.34718018020976L296.0781703224182,116.82009069892047L296.4275663223267,120.92973123412958L297.475754322052,117.46670071349581L297.82515032196045,121.89723252333351L299.15285512161256,117.46876043203156L300.2709223213196,124.29816918100911L300.9697143211365,124.64932544487237L301.8082647209167,122.93412058071044L303.62512392044067,123.58779800451157L304.2540367202759,123.52206723673953L306.69980871963503,135.11371259249609L306.7696879196167,129.5298285153258L306.90944631958007,138.06059052131243L309.9841311187744,140.1831047259184L310.54316471862796,135.75888080409638L311.17207751846314,141.37935063175794L311.31183591842654,140.88530139447718L311.661231918335,143.38626313354507L313.4082119178772,142.55057095738812L313.47809111785887,144.7790576806583L314.1768831176758,147.41437743446116L314.31664151763914,144.71308232131014L314.6660375175476,144.71288922269744L315.64434631729125,149.92090041357548L316.0636215171814,152.21528525674876L316.6925343170166,157.58896218410518L317.74072231674194,161.1824115077743L318.1599975166321,144.057113460638L321.8635951156616,158.77224473641036L323.0515415153503,173.80723742754344L327.3840519142151,175.45835929876193L327.73344791412353,166.0300491943417L328.6418775138855,181.65646431653295L331.22740791320797,186.93507236022378L332.20571671295164,184.5846631728782L334.65148871231077,190.06151912563473L340.45146231079104,209.88452065172532L341.7092879104614,205.5054818052813L342.12856311035154,207.20987314713057L343.8056639099121,213.20814684721154L347.0899863090515,214.87892615720557L347.649019908905,230.0658938931747L350.16467110824584,233.49758450896297L351.49237590789795,231.61552313354423L352.0514095077515,225.9426978353522L352.2610471076965,226.827746016922L354.21766470718387,228.89659811705133L356.31404070663456,228.58685506899747L360.2272759056091,237.26824686615146L360.64655110549927,243.28570169509658L361.76461830520634,246.6295903716782L363.0224439048767,240.19882727205368L363.09232310485834,248.45965672731018L365.4682159042359,237.76871985061553L366.16700790405275,253.28145138287437L366.3766455039978,242.5570891363168L366.4465247039795,255.51174679648375L366.58628310394283,246.32229323938554L366.6561623039246,252.47951284422197L368.4031423034668,250.61527447075787L370.7091559028625,236.53909363125604L373.5043239021301,251.82623449088715L375.67057910156245,260.87470675083387L377.5573175010681,255.87293775158832L377.90671350097654,254.81101124076122L379.44405590057374,266.30742036072115L380.77176070022585,259.2801434632829L381.81994869995117,263.6028940641172L382.93801589965824,258.9877213607906L384.96451269912717,258.4367852722007L385.17415029907227,268.7580799111738L386.92113029861446,261.0685841946315L389.9259358978272,266.9284769922124L391.323519897461,269.75482276696493L392.58134549713134,268.99260461295034L392.7211038970948,267.4993408576356L392.86086229705813,266.9623271790233L393.2801374969482,256.9106690062408L395.23675509643556,268.6637769853387L396.2150638961792,259.79251775891134L400.1282990951538,283.25679913504337L400.40781589508055,259.0764694831996L401.1764870948792,276.5910543335922L404.810205493927,273.43203826883473L405.15960149383545,267.4517999791824L406.2776686935425,269.1691739844273L406.6270646934509,277.3513865578225L406.76682309341425,284.22096625486756L407.4656150932312,268.48696945890606L409.77162869262696,273.1080316699208L410.61017909240724,260.6416882182366L414.2438974914551,268.622646980828L415.01256869125365,277.1070975028624L416.2005150909424,264.84223958031725L418.1571326904297,283.7116751004223L420.81254228973387,273.06350312982613L421.58121348953244,283.17379247805275L421.79085108947754,273.9034563487039L425.7739654884338,263.2645080551756L426.1233614883423,276.48291911046545L426.8920326881409,279.0531678500897L431.9932142868042,261.8983096236552L432.76188548660275,284.44247932845656L432.83176468658445,277.1887589061844L432.9715230865479,261.4288225299133L433.3209190864563,272.59201102882207L433.390798286438,289.877152889263L435.13777828598023,276.0356480121177L435.48717428588867,260.9944922569284L435.69681188583377,288.29340634233495L436.25584548568725,268.23899865706335L437.653429485321,274.2291879618915L437.86306708526615,279.38292235104245L437.93294628524785,278.8159011480125L438.9811342849731,276.460410248842L440.51847668457026,266.1289328763578L441.4269062843323,280.4700643223814L441.5666646842957,274.76835790834593L445.0606246833801,283.9240835744213L446.7377254829407,274.56481587898134L447.2268798828125,268.3048324107622L447.6461550827026,283.89924465620425L449.3232558822632,289.79155549255165L449.53289348220824,285.2310844079002L453.6557662811279,268.4671768511016L454.8437126808167,282.3054569814144L456.31117588043213,270.9193071693212L456.52081348037717,291.62056302412384L459.6653774795533,284.14883748639386L459.8750150794983,282.07124445572845L460.9930822792053,286.8672379183222L463.15933747863767,289.00473979358594L465.11595507812495,285.05228152913605L465.6749886779785,282.6290612915518L465.95450547790523,276.1436770310074L466.51353907775876,275.274627069502L469.0990694770813,285.8291944875791L469.4484654769897,289.4606778013349L470.5665326766968,276.3954904952434L471.68459987640387,290.07600262233836L472.2436334762573,287.75041304334854L472.8725462760925,287.0451847265699L474.2701302757263,279.70389408342635L474.340009475708,289.91350048479853L475.1785598754883,278.37863577611415L475.3183182754517,292.6963347054834L477.9737278747559,295.76939614109597L478.81227827453614,285.0228082442136L480.13998307418825,285.58104989698495L481.7472046737671,290.30979676769675L483.1447886734009,287.3309610184742L486.498990272522,284.27328310567555L487.12790307235724,280.38489174261804L487.3375406723023,275.1048193677807L491.2507758712768,292.6567430532541L492.6483598709106,279.21710535398415L492.78811827087407,300.57927661225494L492.85799747085576,281.8478293608041L496.56159506988524,282.9585712009284L497.95917906951905,281.35520905325757L498.5182126693726,295.7234129247854L501.8724142684936,294.1382985960172L503.13023986816404,297.0944710047261L503.6892734680176,293.70748271778393L505.85552866744996,291.23547289738417L509.3494886665344,289.98222428106783L512.144656665802,284.58997126716713L513.2627238655091,297.32318343825955L514.2410326652526,289.9772519917901L515.7084958648682,293.1377356060043L518.5036638641358,286.9225059595947L520.0410062637329,289.49376846693576L520.3904022636414,286.18247805449255L523.7446038627625,300.9888291149168L525.1421878623962,297.1713403441422L525.2819462623596,287.16727776108655L527.5180806617736,280.4264626556278L529.1951814613342,284.56713735621224L530.0337318611145,287.7221208782739L530.1734902610779,284.100543523351L530.592765460968,276.935027329062L533.1782958602905,300.74424397541725L535.1349134597779,294.4048229562327L535.2746718597413,284.46419326745763L535.554188659668,283.20571811535683L536.6023766593934,287.57665325668677L539.4674238586426,288.5215620082017L539.6770614585877,292.95860767790873L543.3806590576172,291.40383235951003L545.5469142570495,302.2783287774623L545.6167934570312,285.80567507654905L546.80473985672,300.28504903773364L547.0143774566651,296.67833062106L549.3902702560425,295.80161464462935L549.5300286560058,296.44451394753014L550.0191830558776,304.73733501545007L552.5348342552185,294.87450314858734L554.002297454834,292.82392783215255L555.6793982543945,291.3729333631636L556.028794254303,282.05532025679895L556.4480694541932,292.9590807695099L558.3348078536987,286.38091906217096L559.7323918533325,292.09254430828014L560.0817878532409,298.06091668818044L561.1299758529664,297.5814496144708L561.4793718528748,279.58802847917013L564.4841774520874,290.9149806932219L566.2311574516297,282.57085493305567L566.370915851593,289.18568284864114L567.4889830513001,296.22174895126864L568.0480166511535,302.6391705459089L568.187775051117,293.5953374801329L571.6817350502015,299.0186922439234L573.0094398498535,292.82833691714313L573.7781110496521,282.1058219806473L573.9178694496155,296.1754278123858L574.3371446495056,283.78405167878236L575.2455742492676,294.51370804563885L576.503399848938,291.17687390504216L579.2286886482239,296.0917066905281L580.8359102478028,297.4120007543381L581.1853062477112,292.6667455613933L582.8624070472717,302.38136297890287L583.6310782470704,295.12449183093304L584.3997494468689,286.6710947841352L584.8889038467407,278.8015732309482L585.3081790466308,295.0283930879996L586.9852798461914,295.9013468597923L591.1081526451111,302.03589990580485L593.6238038444519,306.34503383613173L593.6936830444336,294.1841852630214L593.9731998443604,300.303414324959L595.3707838439941,304.2153588913038L595.4406630439759,295.6379925351357L595.5105422439575,277.6197228266874L596.069575843811,300.67772793995346L599.1442606430054,289.1008642830011L599.6334150428772,302.28923241246093L599.8430526428223,291.2237292834202L601.1707574424744,295.4915851669666L604.9442342414856,296.6666610282309L605.5731470413208,295.2360577727459L605.7129054412842,294.38500138363634L605.9924222412109,284.935083544452L606.4116974411011,283.4131575183883L606.6213350410461,296.6206906851612L607.110489440918,290.2855628917996L607.6695230407715,290.23424049884716L607.8791606407166,305.9710468796238L608.7177110404969,279.21276707181823L610.6044494400024,290.9153282707248L610.8839662399292,292.4940124156892L611.6526374397278,287.84232476469606L612.4213086395264,289.90105849751853L617.1730942382812,304.2035509111356L618.1514030380249,304.94222873510375L618.7104366378784,296.59507293587285L619.6887454376221,297.74263385397876L619.7586246376038,299.90197679149696L621.5754838371276,293.38370140058487L624.3007726364135,304.6898665489766L626.3272694358826,295.6350864010142L626.5369070358277,286.573724808668L628.3537662353516,301.0126671386579L629.611591835022,303.5307599429848L629.8911086349488,292.8663966537115L631.6380886344909,297.8265979582575L635.2718070335388,297.3401069225099L636.3199950332641,293.9327933974232L636.8790286331176,303.4240665228331L636.9489078330994,302.63075949216955L638.4862502326965,296.3439868097448L639.7440758323669,281.56637525951464L642.5392438316345,293.5279718107731L644.00670703125,287.16725201460486L646.1729622306824,282.84959921714653L649.8765598297119,293.2847254883218L650.6452310295106,285.5103371850046L651.9030566291809,294.2128475337704L652.6018486289978,294.35253828852683L652.6717278289796,308.35312745776673L653.9994326286316,302.9751476496567L655.6066542282105,292.2166713148508L656.9343590278626,297.63488321892237L659.0307350273133,286.10558940521514L659.6596478271484,302.4313529914275L659.8692854270935,288.70490914098536L660.3584398269653,297.09794517060004L661.0572318267822,295.5525946736575L661.2668694267273,308.2452368262161L661.6162654266358,300.3803528580447L662.3150574264527,300.9648205207345L664.6210710258483,292.21662625850786L665.9487758255004,295.0608819295908L667.1367222251893,302.884400956606L671.4692326240539,294.55617043057737L673.9150046234131,310.6749242581716L675.1029510231018,298.844816598094L675.8017430229187,296.3356095482627L676.1511390228271,297.10975315076826L676.9198102226258,293.711003549156L677.339085422516,295.41856814487437L677.8282398223877,290.06155884610644L679.0860654220581,296.6866274247868L679.4354614219666,298.61576463283313L679.784857421875,297.6501203086216L681.0426830215454,291.13840222476665L681.811354221344,298.92191121922497L682.020991821289,303.2736201753478L683.4185758209228,295.424100420129L683.9776094207764,305.21790275125227L684.6764014205933,298.19344509355983L687.1221734199523,303.51934459666245L687.4715694198609,277.4374248630329L691.7342006187439,302.60066185506594L691.8040798187255,301.55198190907186L694.0402142181397,302.12010055588416L697.0450198173523,300.69960601277535L697.6040534172058,311.1080412282065L698.1630870170593,304.5510543929081L698.232966217041,302.58654634647564L700.6088590164184,305.0050421046685L701.3775302162171,294.77136596122L702.2160806159973,286.0579905971781L703.404027015686,308.1294516797152L707.5967790145874,294.06655602476894L709.2738798141479,303.4117403947207L711.3702558135986,306.53577020916237L711.6497726135253,298.2076539331463L712.6280814132691,289.3861031171L713.8160278129578,303.649917878588L714.2353030128479,297.04521798524L717.1702294120788,304.9919612828114L718.2882966117859,293.1090218422919L719.0569678115844,294.0779810260219L719.6858806114197,307.71403541584687L720.2449142112731,304.34587746195575L721.642498210907,300.09889875675526L721.7822566108703,303.0479409991892L721.9918942108153,298.87114881224943L722.1316526107789,293.1547186289936L722.550927810669,295.99617115188175L723.9485118103028,296.17913208743994L724.1581494102478,302.63232680924284L724.5075454101562,285.2956823304776L725.1364582099915,303.73636812750556L731.4255862083435,304.02124007424027L731.4954654083251,299.11689415258047L731.6352238082885,306.2367634439761L732.6135326080322,297.73417452558624L732.893049407959,299.7893632897101L733.5219622077942,277.160151346709L733.591841407776,297.3913585126377L733.9412374076843,310.36470650936144L734.2906334075927,301.60882692234827L735.3388214073182,303.111983763255L738.3436270065307,302.43340788249793L738.8327814064025,300.954874333024L739.1821774063111,302.2560210602271L740.1604862060547,303.3159554370329L740.7893990058899,293.8588012273367L743.0954126052856,303.95479645075625L743.1652918052672,287.5325624067809L743.7942046051025,298.1786601764454L746.4496142044068,294.80770068351467L747.0086478042602,301.8176083607382L747.0785270042419,305.07830050002667L747.3580438041686,300.0871551427913L749.5941782035827,305.25181730426743L752.878500602722,299.95644508268174L753.158017402649,288.4542993247687L754.7652390022279,297.80156915973794L756.0230646018982,298.1501572120519L756.2327022018433,293.28758978441056L757.7001654014588,311.5990024968387L758.4688366012573,293.0885791358246L760.145937400818,300.902557482216L760.6350918006897,298.16250586833576L761.8230382003785,295.3424615449785L761.9627966003418,306.3685468105414L762.1724342002868,304.08315231694564L763.6398973999023,306.021318494292L763.7796557998657,304.4510647129282L764.1290517997741,299.6736457277236L764.8977229995728,297.49455523874394L765.7362733993531,303.23713901993847L766.9242197990417,307.6106198446462L768.1820453987121,295.6363672884786L768.6013205986023,310.22045058156914L769.3001125984192,301.111385586104L770.6278173980713,308.57629796111496L772.5145557975768,300.13377719367895L773.0735893974305,301.86510740115864L774.5410525970459,299.68287745056705L776.0085157966614,298.38407365319836L777.2663413963319,300.3862504115084L779.5024757957458,307.3554738201856L779.9916301956177,293.81527036340776L783.7651069946288,299.5269326200844L784.4638989944458,296.42595717084714L784.9530533943176,305.61631668227005L786.8397917938231,298.09391563194026L788.3072549934388,304.300846865468L789.0060469932556,302.13250714175183L790.1241141929627,294.89372933379445L790.7530269927978,293.8494101981378L792.9891613922119,307.4498668587066L794.107228591919,295.83901462760423L794.4566245918274,293.5850388874542L797.46143019104,297.3165521100675L797.671067790985,300.2731316350182L799.0686517906189,290.56278813347035L799.5578061904909,303.0709567446711L801.3746653900147,298.9149532325464L801.8638197898864,292.52783685601844L806.2662093887328,300.80763020419977L806.8951221885682,295.7663226548434L807.3842765884399,299.0913472061168L808.0830685882569,308.17813827660393L808.2927061882019,306.9848467795391L809.8300485877991,311.58980537083005L810.5987197875976,303.76367227134506L811.3673909873962,302.574944338161L812.4854581871033,297.0422684039306L814.1625589866638,303.1202757395165L814.5818341865539,289.38822398352977L816.1890557861327,296.8237274398225L816.8878477859497,294.6925946004685L817.4468813858032,294.25303135507875L821.7095125846862,308.185437404165L822.3384253845215,288.0552932246719L822.9673381843567,298.5478566782026L825.4131101837158,307.03310855947984L827.3697277832031,310.87492131883755L827.5793653831481,304.90683858685634L830.3745333824157,304.25095983887013L832.0516341819764,303.7165787380113L836.5937821807862,301.321275732362L839.5287085800171,304.470998926382L842.0443597793579,301.0903748478843L842.3937557792664,290.9512253028306L842.6033933792114,293.3776960337291L843.5817021789551,307.06522246793133L844.4202525787352,303.0391276566734L846.0274741783143,301.5028946325617L846.4467493782043,304.07102733322154L847.4949373779298,295.0566401967312L847.9142125778199,306.9727942077948L848.6130045776366,302.8439178324479L850.2901053771974,309.33370152305224L851.4780517768859,298.5000840814141L853.015394176483,300.78367471213596L855.6708037757872,303.4480268423622L856.439474975586,299.1028607109006L857.8370589752197,290.26313770624165L858.3262133750915,303.63536789811906L858.6756093749999,311.54199013143125L861.610535774231,303.2026934457383L864.1261869735717,310.5252760516189L866.0828045730591,305.66244633169526L866.2225629730225,308.2510844958715L866.2924421730041,305.4609318377643L866.4322005729675,306.4110091954799L867.480388572693,305.8728578442076L867.899663772583,306.42574905625133L868.2490597724914,291.4593095909463L870.2755565719605,300.2180679564442L871.253865371704,309.4452706831753L872.0225365715027,301.3478058725955L872.7213285713195,301.104208754331L873.0008453712464,300.35369237624764L873.0707245712281,297.9704338965671L875.0273421707153,307.2759300649832L875.6562549705507,298.7310074940633L877.2634765701295,300.8244088644906L877.3333557701111,297.6315973241958L878.1719061698913,304.1005778575891L880.3381613693238,307.61709830310315L880.9670741691589,303.2018341569117L882.1550205688476,307.01668552246747L882.504416568756,309.13385411381114L883.1333293685914,314.7815822243916L883.6923629684447,291.8622774309142L884.2513965682984,301.96857929278804L885.4393429679869,312.3398285428734L887.5357189674378,297.8441039566562L888.2345109672546,309.42720791710985L890.8200413665771,297.3473899585199L891.4489541664124,301.7539373115019L891.5188333663941,296.64628268796787L891.9381085662842,294.87198321169126L893.0561757659913,304.1419524536759L893.545330165863,311.126507087626L895.5019477653505,304.0022938820216L895.5718269653321,291.6915653840233L896.2007397651672,307.6447805983926L896.5501357650757,295.1813014427971L897.3188069648743,309.27994930588966L897.9477197647094,305.8494864754473L898.9260285644531,301.095271506872L901.5814381637573,305.8266219905454L901.7910757637023,308.82535494265426L902.4199885635377,300.0117259971951L904.1669685630799,306.26121616496766L904.4464853630066,304.22084289190525L905.0753981628417,307.81205870828717L906.0537069625855,311.2353624076627L906.4729821624755,306.51370547434817L906.6127405624391,305.35601653400477L908.9886333618164,288.03551992672874L909.4079085617064,305.4792585052671L909.8271837615968,312.95402373699244L909.96694216156,299.93177834406106L910.7356133613586,300.0903428790564L911.0850093612671,302.3923181068649L912.0633181610107,313.25269579791666L912.692230960846,299.4132522484622L913.8102981605531,309.7920017704969L915.5572781600953,304.5886474744957L916.8849829597474,299.0545313464454L917.5138957595825,300.00690979596266L918.7717213592529,302.8446612621069L920.6584597587585,306.0450503137961L922.2656813583375,304.31342080346667L922.4054397583009,303.41733059955914L922.4753189582825,306.29668033434996L926.0391581573485,312.3968143572216L926.5981917572022,297.7666231382998L926.8078293571473,298.8038845196613L927.4367421569824,299.5487060978244L930.0921517562866,296.80427597290054L932.258406955719,308.7502621104752L933.6559909553529,308.4259948284341L934.983695755005,298.9284910544536L937.1499509544373,312.07039724395884L937.7089845542909,297.6051460325625L937.8487429542542,315.86349685536857L940.2246357536316,308.9414619201764L941.4125821533203,306.75472472613274L942.810166152954,298.0405447845378L944.7667837524415,306.51279791086836L944.9764213523865,308.9304601267163L945.0463005523682,298.79505991305973L945.4655757522582,298.0538074409219L945.6053341522216,306.3975019475197L946.7932805519104,302.84175030052006L947.3523141517638,301.1513425165424L947.9812269515992,310.275770115805L949.0294149513245,309.0425989277469L950.1474821510315,300.1277332071006L952.8727709503173,301.60111263276985L953.7113213500977,307.25042334739715L953.851079750061,287.91205267375153L954.549871749878,299.54763279136864L955.3185429496765,302.4699855872136L956.2968517494202,308.8759870080662L956.4366101493836,292.94411884533383L957.6245565490723,303.2950283748787L958.9522613487244,305.27311286294093L961.4679125480651,301.5524131626403L963.3546509475708,305.2159653285046L963.7739261474609,292.89235554388233L964.4028389472962,303.79469839094486L966.4992149467469,299.11879778307093L968.1064365463257,305.8072461539134L968.1763157463073,314.0021734663791L969.4341413459778,305.7251390146271L971.390758945465,307.93889392290134L971.7401549453735,295.8483348539785L973.6268933448791,310.6775536176149L974.5353229446412,300.3499575272465L974.6750813446046,300.97668482133145L974.7449605445862,300.92253192454746L976.14254454422,309.99529438082004L976.4919405441284,303.0488437352037L977.4702493438721,311.2494215958243L978.169041343689,291.4469223149399L978.5184373435975,309.9305741624546L979.0075917434692,304.8656442161414L980.3352965431213,302.7428146171346L981.1738469429015,298.12341949080974L983.6196189422607,312.4404988954632L984.248531742096,309.207275033835L987.9521293411254,308.7767343211249L989.0003173408509,301.12876124293916L989.7689885406495,305.67225413206666L990.0485053405762,305.64401506911054L991.1665725402833,309.3992729844688L992.0750021400452,306.163521140169L993.4725861396789,306.789247539778L994.1014989395143,294.507413030864L994.6605325393676,305.14045250684285L997.1761837387086,305.72797917338926L998.5737677383423,301.3366544277105L998.7834053382874,308.012099216141L999.9014725379944,313.13990448449056L1001.0195397377015,304.1101539396252L1005.9809629364014,300.7441474261109L1006.6098757362365,311.346191356437L1008.7761309356689,300.32527952454006L1010.103835735321,301.84402586011424L1010.313473335266,295.89017610504607L1011.8508157348632,293.44356840715045L1016.392963733673,312.6528800138253L1016.8122389335633,306.5596854723485L1016.9519973335266,309.4174918385795L1018.4194605331421,307.9966481088127L1019.9568029327393,313.2558674426307L1021.9832997322081,308.15485541137446L1025.197742931366,312.4428909045283L1027.1543605308532,310.5700580336428L1031.277233329773,292.78120798239706L1032.39530052948,309.74390412437697L1034.5615557289123,308.1534892386894L1035.1205893287658,300.3580724964463L1036.5880525283815,302.7111963284558L1038.3350325279237,305.3652176829012L1038.684428527832,304.9807084611548L1039.592858127594,306.56812066341445L1040.501287727356,312.42442263137616L1040.920562927246,303.94993197487065L1043.855489326477,307.15734498859774L1043.9253685264587,288.60414384824435L1044.274764526367,312.148852405732L1045.3229525260924,305.6910120531379L1049.3759461250306,295.05540114729956L1050.5638925247192,308.20977587514403L1052.450630924225,297.7213270312195L1052.5205101242066,307.52327651464475L1053.07954372406,307.97330248653407L1053.9180941238403,303.9450787630708L1054.7566445236207,298.0042969566189L1055.8048325233458,304.50988576867485L1056.0843493232728,303.422714832544L1057.2722957229614,314.3187272634193L1058.5301213226319,312.01016576376173L1059.7879469223021,301.20054243390996L1060.8361349220277,302.62547341764616L1061.5349269218443,303.52465802682264L1061.7445645217897,307.00418560560365L1062.5831149215699,303.318657208456L1062.6529941215515,303.87120727961724L1062.9325109214783,302.5160283422631L1064.8891285209656,310.21260916873734L1066.7059877204895,312.3376384827741L1069.0120013198853,312.78709642291096L1070.0601893196106,310.40032998509923L1072.5758405189513,313.1558294879976L1072.92523651886,296.9572100741798L1076.279438117981,305.00542508358376L1076.5589549179076,298.42156053054896L1077.9565389175416,308.824774037661L1081.3806197166443,303.6673933030397L1083.1974789161682,301.3302612544742L1083.4071165161133,288.47379584803366L1086.3420429153443,305.06297812510684L1087.4601101150513,311.5186879563405L1089.9058821144104,312.6480911682297L1090.9540701141357,307.9985742674746L1091.5131037139893,309.0364648284826L1091.9323789138793,312.1179630643162L1094.2383925132751,315.9203402594899L1095.426338912964,310.2542589303473L1095.6359765129089,312.61642862778547L1095.845614112854,310.56646881317874L1096.7540437126158,311.2975723440627L1098.6407821121215,312.3951561228848L1099.898607711792,305.10298815766373L1100.3877621116637,299.7920280505657L1100.8769165115357,301.48753524707445L1102.4142589111327,312.22796490736596L1103.8817221107483,310.76209379942156L1104.7901517105101,309.6101897716844L1107.2359237098694,308.67044158059457L1108.8431453094483,296.46022573798564L1109.0527829093933,301.38555182391815L1109.9612125091553,303.76691632803886L1110.240729309082,306.3518244706793L1110.6600045089722,311.9456853095071L1113.6648101081848,309.57257738023554L1113.7346893081665,314.3765562750431L1115.0623941078186,307.7915355440646L1115.2720317077637,312.95564576533934L1115.831065307617,310.0595736906864L1115.900944507599,305.1350972386499L1115.9708237075806,289.81691899533325L1116.3900989074707,297.7127663260553L1117.7876829071045,301.2435696322907L1117.927441307068,303.08934134175774L1119.1852669067382,291.8960825613822L1122.6792269058228,299.8649565691271L1123.6575357055665,307.3982355079738L1124.0768109054566,298.22266413197553L1126.452703704834,300.3077735261413L1129.3177509040834,301.54376234479014L1131.2743685035705,298.3859724562235L1133.1611069030762,307.9379525671643L1133.5105029029846,296.8358990890447L1133.9297781028747,309.11543250615705L1135.5369997024536,311.28498714197826L1137.2839797019958,312.26869745056547L1138.1225301017762,311.9076481011102L1138.1924093017578,304.7365658393094L1138.611684501648,305.1345855273262L1139.2405973014831,298.6965200818304L1140.4285437011717,304.73690215272654L1141.2670941009521,306.37664729734524L1141.6863693008422,313.78250207080896L1143.083953300476,304.5956971830153L1143.363470100403,307.4074752765928L1145.0405708999633,302.03227769766113L1145.1803292999268,301.3802770134805L1145.8092420997618,314.4356943343456L1149.3032020988464,311.82657082109176L1150.980302898407,307.07450568373815L1152.587524497986,298.30499977128693L1155.1031756973266,312.7022746389607L1156.7802764968872,313.45231551171025L1156.9200348968507,305.5295011551434L1156.9899140968323,306.4993550291124L1159.086290096283,314.4923888916196L1160.8332700958251,308.1811055586195L1161.1826660957336,306.92206237476626L1162.2308540954589,308.08039175884187L1162.6501292953492,312.29707087797294L1164.7465052947998,305.29462565755375L1164.8163844947815,313.11234689872185L1165.375418094635,306.7575375292581L1165.6549348945616,304.2509180008374L1166.074210094452,304.6991867753509L1167.1922772941589,305.8810178697504L1170.1970828933715,311.7893422131357L1171.035633293152,305.5371349869665L1171.8043044929505,308.49813164268335L1172.5030964927673,311.58090754767113L1172.572975692749,297.1635439876534L1172.8524924926758,307.80710894718095L1173.1320092926026,307.00482604933586L1173.4115260925294,306.8586922375348L1174.599472492218,309.13279207144114L1175.0187476921083,294.17612017762985L1175.2982644920348,311.4094150605538L1175.4380228919983,312.2895641694032L1177.1850028915405,305.34032727172075L1178.5127076911926,308.04561148037965L1179.0018620910644,308.55205121197696L1179.0717412910462,307.24367294172725L1180.1898084907532,302.9907725457365L1180.3994460906983,312.29656560326964L1182.6355804901123,297.58779612220906L1182.705459690094,300.0935869357502L1182.7753388900758,312.6429217574515L1184.4524396896363,303.7298076021382L1185.4307484893798,301.53098243493787L1188.994587688446,312.25341771825595L1189.8331380882264,302.7476485190732L1194.2355276870728,310.09263217318517L1197.1704540863038,306.3712083530868L1197.4499708862304,308.3488438868744L1198.8475548858642,314.2841931856883L1200.5246556854247,306.62519739502613L1200.6644140853882,309.98926165832745L1201.8523604850768,313.8097595491504L1204.4378908843994,310.1207682502145L1205.2764412841798,308.2488413336537L1206.53426688385,302.59907040066605L1206.8836628837587,310.2811881410471L1207.023421283722,301.850000653023L1207.7222132835388,308.8398614759353L1208.9800388832093,313.99733554155273L1210.0981060829163,315.4662559984231L1210.587260482788,311.79152664119215L1211.7752068824768,306.1976287917969L1212.194482082367,298.9083106402686L1212.6836364822389,299.46766100090804L1215.967958881378,309.7734546487445L1216.3173548812865,307.2873711577872L1217.4354220809937,312.18173388116907L1217.8546972808838,305.79572138504386L1218.5534892807007,306.2822333398078L1219.8113148803711,299.2492777340003L1220.3004692802429,303.5595251996606L1220.99926128006,305.10004662212987L1221.0691404800416,307.4327325751374L1221.1390196800232,291.7894470708143L1222.047449279785,301.19222310201167L1223.3751540794372,307.0306288514614L1224.772738079071,305.6404169982934L1225.5414092788697,309.7023251655917L1228.825731678009,317.36463702263865L1229.6642820777893,309.08435328443875L1230.4329532775878,306.66045398339975L1232.669087677002,310.53813722380403L1234.905222076416,307.32151421082744L1237.0714772758483,307.5476680877423L1239.657007675171,307.81016634188245L1241.3341084747315,310.33993034819355L1241.9630212745667,299.4502145412482L1242.3822964744568,315.06118016526625L1243.430484474182,314.5764752916864L1244.6184308738707,306.8501926802646L1245.5967396736146,307.05983340748116L1245.8063772735595,308.60189961885226L1247.1340820732116,307.57756297130254L1248.4617868728637,303.6090807403066L1254.052122871399,307.45487615855177L1256.3581364707948,313.0687323587274L1256.9171700706481,300.7377944817522L1257.3364452705382,304.0894425042552L1259.013546070099,304.5795847129384L1259.0834252700806,309.3603845330208L1259.5725796699523,301.24116233625205L1261.7388348693848,309.0534156683698L1263.6255732688903,313.3925780421307L1264.4641236686707,310.988878465138L1265.6520700683593,306.7880857297914L1265.931586868286,314.3906613241252L1270.0544596672057,314.9693593611822L1270.9628892669677,311.2851335750929L1271.6616812667846,312.6985510540453L1271.9411980667114,312.17295754922065L1272.3604732666015,315.397034973226L1273.6881780662536,283.98351932741843L1275.2255204658509,315.37723110133584L1276.133950065613,314.01116140222393L1280.2568228645325,309.2120365237938L1281.7941652641296,306.31921816076533L1282.0736820640564,298.68698905613724L1282.2134404640199,310.22359487064637L1282.2833196640015,300.9681080246162L1282.9821116638184,306.0865085859484L1284.3796956634521,306.1724358594565L1285.078487663269,308.1510368863078L1285.986917263031,312.2906728772713L1286.196554862976,307.56839078719804L1288.5724476623536,295.8750854484615L1289.2013604621886,305.5089699451453L1292.276045261383,310.1228167046645L1293.1145956611633,305.8639527798507L1296.8880724601747,302.4940939490125L1298.7049316596986,312.72668874022975L1299.054327659607,313.9825940716262L1300.4519116592407,308.8583908969815L1304.015750858307,288.3235908738143L1304.2952676582336,302.8096219096726L1306.5314020576477,311.8741181361654L1309.9554828567505,313.9201411528052L1311.3530668563842,305.4452731494273L1313.5892012557983,312.1658861171071L1314.2879932556152,305.7381747801412L1314.3578724555969,306.85504267375427L1316.104852455139,306.3183299071468L1316.4542484550475,310.5518946953832L1316.7337652549745,308.3143242915394L1317.712074054718,312.17242330972545L1320.647000453949,308.76148918565013L1321.6951884536743,308.47271986524856L1322.3939804534912,306.4123174385811L1327.634920452118,308.323210046035L1330.2204508514403,316.56474573156993L1330.7096052513123,311.82049062852354L1332.3168268508912,307.41648010856625L1334.4830820503234,317.9020590243591L1336.8589748497009,307.51564268282164L1336.9288540496825,317.46417251858986L1338.4661964492798,298.2548279242353L1338.8155924491882,317.2618104022068" fill="none"></path></g></g></g></g></g></g><g transform="translate(51, 377)" clip-path="url(#clip_1)"><clipPath id="clip_1"><rect width="1397" height="22"></rect></clipPath><g><g><line x1="0" y1="0" x2="0" y2="5" style="visibility: inherit;" fill="rgb(0, 0, 0)" stroke="rgb(204, 204, 204)" stroke-width="1px"></line><line x1="139.7583999633789" y1="0" x2="139.7583999633789" y2="5" style="visibility: inherit;" fill="rgb(0, 0, 0)" stroke="rgb(204, 204, 204)" stroke-width="1px"></line><line x1="279.5167999267578" y1="0" x2="279.5167999267578" y2="5" style="visibility: inherit;" fill="rgb(0, 0, 0)" stroke="rgb(204, 204, 204)" stroke-width="1px"></line><line x1="419.2751998901367" y1="0" x2="419.2751998901367" y2="5" style="visibility: inherit;" fill="rgb(0, 0, 0)" stroke="rgb(204, 204, 204)" stroke-width="1px"></line><line x1="559.0335998535156" y1="0" x2="559.0335998535156" y2="5" style="visibility: inherit;" fill="rgb(0, 0, 0)" stroke="rgb(204, 204, 204)" stroke-width="1px"></line><line x1="698.7919998168945" y1="0" x2="698.7919998168945" y2="5" style="visibility: inherit;" fill="rgb(0, 0, 0)" stroke="rgb(204, 204, 204)" stroke-width="1px"></line><line x1="838.5503997802734" y1="0" x2="838.5503997802734" y2="5" style="visibility: inherit;" fill="rgb(0, 0, 0)" stroke="rgb(204, 204, 204)" stroke-width="1px"></line><line x1="978.3087997436522" y1="0" x2="978.3087997436522" y2="5" style="visibility: inherit;" fill="rgb(0, 0, 0)" stroke="rgb(204, 204, 204)" stroke-width="1px"></line><line x1="1118.0671997070312" y1="0" x2="1118.0671997070312" y2="5" style="visibility: inherit;" fill="rgb(0, 0, 0)" stroke="rgb(204, 204, 204)" stroke-width="1px"></line><line x1="1257.8255996704102" y1="0" x2="1257.8255996704102" y2="5" style="visibility: inherit;" fill="rgb(0, 0, 0)" stroke="rgb(204, 204, 204)" stroke-width="1px"></line><line x1="1397.583999633789" y1="0" x2="1397.583999633789" y2="5" style="visibility: inherit;" fill="rgb(0, 0, 0)" stroke="rgb(204, 204, 204)" stroke-width="1px"></line></g><g transform="translate(0, 8)"><text style="text-anchor: middle; visibility: hidden; font-family: &quot;Helvetica Neue&quot;, sans-serif; font-size: 12px; font-weight: 200;" x="0" y="0" dx="0em" dy="0.95em" fill="rgb(50, 49, 63)" stroke="none" stroke-width="1px">-2k</text><text style="text-anchor: middle; visibility: inherit; font-family: &quot;Helvetica Neue&quot;, sans-serif; font-size: 12px; font-weight: 200;" x="139.7583999633789" y="0" dx="0em" dy="0.95em" fill="rgb(50, 49, 63)" stroke="none" stroke-width="1px">0</text><text style="text-anchor: middle; visibility: inherit; font-family: &quot;Helvetica Neue&quot;, sans-serif; font-size: 12px; font-weight: 200;" x="279.5167999267578" y="0" dx="0em" dy="0.95em" fill="rgb(50, 49, 63)" stroke="none" stroke-width="1px">2k</text><text style="text-anchor: middle; visibility: inherit; font-family: &quot;Helvetica Neue&quot;, sans-serif; font-size: 12px; font-weight: 200;" x="419.2751998901367" y="0" dx="0em" dy="0.95em" fill="rgb(50, 49, 63)" stroke="none" stroke-width="1px">4k</text><text style="text-anchor: middle; visibility: inherit; font-family: &quot;Helvetica Neue&quot;, sans-serif; font-size: 12px; font-weight: 200;" x="559.0335998535156" y="0" dx="0em" dy="0.95em" fill="rgb(50, 49, 63)" stroke="none" stroke-width="1px">6k</text><text style="text-anchor: middle; visibility: inherit; font-family: &quot;Helvetica Neue&quot;, sans-serif; font-size: 12px; font-weight: 200;" x="698.7919998168945" y="0" dx="0em" dy="0.95em" fill="rgb(50, 49, 63)" stroke="none" stroke-width="1px">8k</text><text style="text-anchor: middle; visibility: inherit; font-family: &quot;Helvetica Neue&quot;, sans-serif; font-size: 12px; font-weight: 200;" x="838.5503997802734" y="0" dx="0em" dy="0.95em" fill="rgb(50, 49, 63)" stroke="none" stroke-width="1px">10k</text><text style="text-anchor: middle; visibility: inherit; font-family: &quot;Helvetica Neue&quot;, sans-serif; font-size: 12px; font-weight: 200;" x="978.3087997436522" y="0" dx="0em" dy="0.95em" fill="rgb(50, 49, 63)" stroke="none" stroke-width="1px">12k</text><text style="text-anchor: middle; visibility: inherit; font-family: &quot;Helvetica Neue&quot;, sans-serif; font-size: 12px; font-weight: 200;" x="1118.0671997070312" y="0" dx="0em" dy="0.95em" fill="rgb(50, 49, 63)" stroke="none" stroke-width="1px">14k</text><text style="text-anchor: middle; visibility: inherit; font-family: &quot;Helvetica Neue&quot;, sans-serif; font-size: 12px; font-weight: 200;" x="1257.8255996704102" y="0" dx="0em" dy="0.95em" fill="rgb(50, 49, 63)" stroke="none" stroke-width="1px">16k</text><text style="text-anchor: middle; visibility: hidden; font-family: &quot;Helvetica Neue&quot;, sans-serif; font-size: 12px; font-weight: 200;" x="1397.583999633789" y="0" dx="0em" dy="0.95em" fill="rgb(50, 49, 63)" stroke="none" stroke-width="1px">18k</text></g><line x1="0" y1="0" x2="1397.583999633789" y2="0" fill="rgb(0, 0, 0)" stroke="rgb(204, 204, 204)" stroke-width="1px"></line></g></g></g></g></svg>